<?xml version="1.0" encoding="UTF-8" standalone="no"?>
<svg
   xmlns:dc="http://purl.org/dc/elements/1.1/"
   xmlns:cc="http://creativecommons.org/ns#"
   xmlns:rdf="http://www.w3.org/1999/02/22-rdf-syntax-ns#"
   xmlns:svg="http://www.w3.org/2000/svg"
   xmlns="http://www.w3.org/2000/svg"
   xmlns:sodipodi="http://sodipodi.sourceforge.net/DTD/sodipodi-0.dtd"
   xmlns:inkscape="http://www.inkscape.org/namespaces/inkscape"
   version="1.1"
   id="Capa_1"
   x="0px"
   y="0px"
   width="1920"
   height="1080"
   viewBox="0 0 1919.9999 1080"
   enable-background="new 0 0 773.572 553.078"
   xml:space="preserve"
   sodipodi:docname="binoculars.svg"
   inkscape:version="1.0.2 (1.0.2+r75+1)"><metadata
   id="metadata3229"><rdf:RDF><cc:Work
       rdf:about=""><dc:format>image/svg+xml</dc:format><dc:type
         rdf:resource="http://purl.org/dc/dcmitype/StillImage" /><dc:title /></cc:Work></rdf:RDF></metadata><defs
   id="defs3227" /><sodipodi:namedview
   pagecolor="#ffffff"
   bordercolor="#666666"
   borderopacity="1"
   objecttolerance="10"
   gridtolerance="10"
   guidetolerance="10"
   inkscape:pageopacity="0"
   inkscape:pageshadow="2"
   inkscape:window-width="2688"
   inkscape:window-height="1478"
   id="namedview3225"
   showgrid="false"
   units="px"
   width="1920mm"
   inkscape:zoom="4.5151426"
   inkscape:cx="940.28132"
   inkscape:cy="537.7189"
   inkscape:window-x="0"
   inkscape:window-y="0"
   inkscape:window-maximized="1"
   inkscape:current-layer="layer3"
   inkscape:document-rotation="0" />

<linearGradient
   id="SVGID_1_"
   gradientUnits="userSpaceOnUse"
   x1="386.99951"
   y1="-54.736301"
   x2="386.99951"
   y2="779.79858"
   gradientTransform="matrix(-1,0,0,1,774,0)">
	<stop
   offset="0"
   style="stop-color:#89CDE4"
   id="stop4" />
	<stop
   offset="0.3619"
   style="stop-color:#85A365"
   id="stop6" />
	<stop
   offset="1"
   style="stop-color:#414F31"
   id="stop8" />
</linearGradient>






























































<g
   inkscape:groupmode="layer"
   id="layer3"
   inkscape:label="Layer 3"
   style="display:inline"><path
     id="rect18-3"
     style="display:inline;mix-blend-mode:normal;fill:#000000;stroke-width:5;stroke-linecap:round;stroke-linejoin:round"
     d="M 5e-6,0 V 1080 H 1920 V 0 Z M 922.07419,477.92578 a 62.073714,62.073714 0 0 1 37.9258,12.9336 62.073714,62.073714 0 0 1 37.9258,-12.9336 A 62.073714,62.073714 0 0 1 1060,540 62.073714,62.073714 0 0 1 997.92579,602.07422 62.073714,62.073714 0 0 1 959.99999,589.13867 62.073714,62.073714 0 0 1 922.07419,602.07422 62.073714,62.073714 0 0 1 859.99999,540 a 62.073714,62.073714 0 0 1 62.0742,-62.07422 z" /></g><g
   inkscape:groupmode="layer"
   id="layer1"
   inkscape:label="Layer 4"
   style="display:none"><path
     id="path853"
     style="display:inline;mix-blend-mode:normal;fill:#ffffff;stroke-width:5;stroke-linecap:round;stroke-linejoin:round"
     d="m 922.02288,475.20834 c -15.95137,0.1472 -31.74861,6.4704 -43.38602,17.38351 -11.02859,10.23619 -18.2984,24.42263 -20.12627,39.36191 -1.91243,15.04691 1.68377,30.72161 9.99994,43.41092 8.06243,12.41349 20.49902,21.92065 34.62147,26.37406 14.42032,4.62448 30.46499,3.97363 44.44327,-1.86744 4.37378,-1.80766 8.54454,-4.10114 12.42282,-6.81282 12.78589,9.01025 28.91254,13.12988 44.45281,11.33108 15.1241,-1.67608 29.5642,-8.88763 39.9557,-20.00943 10.1115,-10.72389 16.386,-24.98197 17.4142,-39.68944 1.061,-14.37606 -2.8464,-29.06437 -10.9519,-40.98993 -8.3527,-12.39511 -21.1231,-21.73402 -35.4834,-25.89332 -14.8018,-4.36052 -31.15752,-3.19864 -45.16913,3.28095 -3.57369,1.63437 -6.99445,3.60105 -10.21445,5.85324 -11.02218,-7.74937 -24.50536,-11.92118 -37.97904,-11.73329 z m 0.67036,3.91875 a 60.872465,60.872465 0 0 1 0.11492,0 60.872465,60.872465 0 0 1 37.19185,12.68331 60.872465,60.872465 0 0 1 37.19184,-12.68331 60.872465,60.872465 0 0 1 60.87295,60.87297 60.872465,60.872465 0 0 1 -60.87295,60.87296 60.872465,60.872465 0 0 1 -37.19184,-12.68522 60.872465,60.872465 0 0 1 -37.19185,12.68522 60.872465,60.872465 0 0 1 -60.87296,-60.87296 60.872465,60.872465 0 0 1 60.75804,-60.87297 z" /></g></svg>
