<?xml version="1.0" encoding="UTF-8" standalone="no"?>
<svg
   xmlns:dc="http://purl.org/dc/elements/1.1/"
   xmlns:cc="http://creativecommons.org/ns#"
   xmlns:rdf="http://www.w3.org/1999/02/22-rdf-syntax-ns#"
   xmlns:svg="http://www.w3.org/2000/svg"
   xmlns="http://www.w3.org/2000/svg"
   xmlns:sodipodi="http://sodipodi.sourceforge.net/DTD/sodipodi-0.dtd"
   xmlns:inkscape="http://www.inkscape.org/namespaces/inkscape"
   version="1.1"
   id="svg2"
   width="1500"
   height="600"
   viewBox="0 0 1500 600"
   sodipodi:docname="definition-content-hashing-02.svg"
   inkscape:version="1.0.2 (1.0.2+r75+1)">
  <metadata
     id="metadata8">
    <rdf:RDF>
      <cc:Work
         rdf:about="">
        <dc:format>image/svg+xml</dc:format>
        <dc:type
           rdf:resource="http://purl.org/dc/dcmitype/StillImage" />
        <dc:title />
      </cc:Work>
    </rdf:RDF>
  </metadata>
  <defs
     id="defs6" />
  <sodipodi:namedview
     pagecolor="#ffffff"
     bordercolor="#666666"
     borderopacity="1"
     objecttolerance="10"
     gridtolerance="10"
     guidetolerance="10"
     inkscape:pageopacity="0"
     inkscape:pageshadow="2"
     inkscape:window-width="2560"
     inkscape:window-height="1406"
     id="namedview4"
     showgrid="false"
     inkscape:zoom="0.70488196"
     inkscape:cx="1146.6956"
     inkscape:cy="275.51402"
     inkscape:window-x="0"
     inkscape:window-y="0"
     inkscape:window-maximized="1"
     inkscape:current-layer="layer2"
     inkscape:document-rotation="0" />
  <g
     inkscape:groupmode="layer"
     inkscape:label="marks"
     id="g10">
    <rect
       style="fill:#0082ff;fill-opacity:1;stroke:none;stroke-width:10;stroke-linecap:round;stroke-linejoin:round;stroke-miterlimit:4;stroke-dasharray:none"
       id="rect1054"
       width="100"
       height="100"
       x="-100"
       y="-100" />
    <rect
       style="fill:#0082ff;fill-opacity:1;stroke:none;stroke-width:10;stroke-linecap:round;stroke-linejoin:round;stroke-miterlimit:4;stroke-dasharray:none"
       id="rect1056"
       width="100"
       height="100"
       x="1500"
       y="-100" />
    <rect
       style="fill:#0082ff;fill-opacity:1;stroke:none;stroke-width:10;stroke-linecap:round;stroke-linejoin:round;stroke-miterlimit:4;stroke-dasharray:none"
       id="rect1058"
       width="100"
       height="100"
       x="1500"
       y="600" />
    <rect
       style="fill:#0082ff;fill-opacity:1;stroke:none;stroke-width:10;stroke-linecap:round;stroke-linejoin:round;stroke-miterlimit:4;stroke-dasharray:none"
       id="rect1060"
       width="100"
       height="100"
       x="-100"
       y="599.99988" />
  </g>
  <g
     inkscape:groupmode="layer"
     id="layer2"
     inkscape:label="Layer 1"
     style="display:none">
    <g
       id="g1031"
       transform="translate(-84.4417,-52.834645)"
       style="display:inline">
      <text
         xml:space="preserve"
         style="font-style:normal;font-weight:normal;font-size:66.1294px;line-height:1.25;font-family:sans-serif;letter-spacing:0px;word-spacing:0px;fill:#000000;fill-opacity:1;stroke:none;stroke-width:1"
         x="347.96533"
         y="492.55453"
         id="text881"><tspan
           sodipodi:role="line"
           id="tspan879"
           x="347.96533"
           y="492.55453"
           style="font-style:normal;font-variant:normal;font-stretch:normal;font-size:66.1294px;font-family:'Operator Mono';-inkscape-font-specification:'Operator Mono,  weight=330';font-variant-ligatures:normal;font-variant-caps:normal;font-variant-numeric:normal;font-variant-east-asian:normal;stroke-width:1">foo.js</tspan></text>
      <g
         id="g1014">
        <rect
           style="fill:#0082ff;fill-opacity:1;stroke:#000000;stroke-width:9.9999;stroke-linecap:round;stroke-linejoin:round;stroke-miterlimit:4;stroke-dasharray:none"
           id="rect885"
           width="120"
           height="120"
           x="187.32991"
           y="414.50122"
           ry="8" />
        <rect
           style="fill:#ffed39;fill-opacity:1;stroke:none;stroke-width:20;stroke-linejoin:round;stroke-dasharray:10, 10;stroke-opacity:1"
           id="rect902"
           width="28.939449"
           height="28.939449"
           x="256.71362"
           y="484.9603" />
      </g>
    </g>
    <g
       id="g1044"
       transform="translate(-487.0559,-52.834584)"
       style="display:inline">
      <text
         xml:space="preserve"
         style="font-style:normal;font-weight:normal;font-size:66.1294px;line-height:1.25;font-family:sans-serif;letter-spacing:0px;word-spacing:0px;fill:#000000;fill-opacity:1;stroke:none;stroke-width:1"
         x="1347.9653"
         y="492.55453"
         id="text958"><tspan
           sodipodi:role="line"
           id="tspan956"
           x="1347.9653"
           y="492.55453"
           style="font-style:normal;font-variant:normal;font-stretch:normal;font-size:66.1294px;font-family:'Operator Mono';-inkscape-font-specification:'Operator Mono,  weight=330';font-variant-ligatures:normal;font-variant-caps:normal;font-variant-numeric:normal;font-variant-east-asian:normal;stroke-width:1">foo-6308a284.js</tspan></text>
      <g
         id="g1018">
        <rect
           style="fill:#0082ff;fill-opacity:1;stroke:#000000;stroke-width:9.9999;stroke-linecap:round;stroke-linejoin:round;stroke-miterlimit:4;stroke-dasharray:none"
           id="rect960"
           width="120"
           height="120"
           x="1187.33"
           y="414.50122"
           ry="8" />
        <rect
           style="fill:#ffed39;fill-opacity:1;stroke:none;stroke-width:20;stroke-linejoin:round;stroke-dasharray:10, 10;stroke-opacity:1"
           id="rect974"
           width="28.939449"
           height="28.939449"
           x="1256.7136"
           y="484.9603" />
      </g>
    </g>
    <path
       id="path1046"
       style="display:inline;fill:#000000;stroke-width:1"
       d="m 624.15579,404.19117 c -0.68025,-0.0572 -1.39451,0.2593 -1.718,0.87825 -0.39528,0.68931 -0.33658,1.68476 0.27167,2.23019 0.71613,0.49515 1.56818,0.74038 2.36859,1.06474 2.52963,0.94521 5.11158,1.74814 7.60824,2.78179 2.22132,0.90816 4.44428,1.82343 6.59137,2.89775 2.0973,1.18184 4.1203,2.49184 6.12692,3.82052 0.21234,0.14227 0.42325,0.28662 0.63217,0.43383 -1.33094,0.70361 -2.49477,1.67501 -3.66649,2.61017 -1.5671,1.31889 -3.12227,2.65279 -4.73813,3.91248 -2.75852,2.22866 -5.75899,4.16718 -8.31168,6.64305 -1.13328,1.12187 -2.22996,2.45364 -2.44217,4.0892 -0.18796,1.08337 0.19588,2.27813 1.0976,2.94159 0.37145,0.30313 0.83526,0.44454 1.25918,0.65398 0.64974,-0.11035 1.32319,-0.26289 1.87258,-0.64556 1.0579,-0.74475 1.65189,-1.93813 2.58061,-2.8157 2.04345,-2.06397 4.44967,-3.71568 6.59615,-5.66495 2.09382,-1.81753 4.08125,-3.75075 6.14177,-5.60467 0.91771,-0.82734 1.91465,-1.59255 3.07271,-2.05113 0.99729,-0.45779 2.09279,-0.90039 2.76272,-1.81499 0.4583,-0.64639 0.598,-1.56837 0.16353,-2.26414 -0.67311,-1.12643 -1.68906,-1.99229 -2.66937,-2.84335 -2.30848,-1.90889 -4.81973,-3.57441 -7.46825,-4.97301 -3.30106,-1.69073 -6.76064,-3.05177 -10.25995,-4.27142 -2.2586,-0.75837 -4.53487,-1.50799 -6.88801,-1.91397 -0.32652,-0.0448 -0.65376,-0.0878 -0.98376,-0.0947 z m 12.30439,11.98591 c -0.92007,0.041 -1.78306,0.4116 -2.66329,0.649 -0.63023,0.18189 -1.25626,0.40091 -1.8891,0.55977 -5.92152,-0.40694 -11.83967,-0.88893 -17.77453,-1.05802 -5.46489,-0.18279 -10.93444,-0.13817 -16.39913,0.0269 -12.74591,0.29186 -25.50853,0.0966 -38.26371,-0.25668 -4.24525,-0.10867 -8.49139,-0.23383 -12.73609,-0.33222 -2.64543,0.33336 -5.28164,0.75084 -7.93788,0.99095 -1.12824,0.0885 -2.28611,0.10468 -3.3841,0.0752 -3.6663,-0.0919 -7.3417,-0.31001 -11.00492,-0.0294 -1.19656,0.12444 -2.45154,0.22904 -3.52054,0.8291 -0.61474,0.34041 -1.02134,1.04952 -0.88979,1.75673 0.0214,0.25902 0.14604,0.50031 0.24184,0.72778 -0.10948,0.30371 0.27497,0.2729 0.46032,0.37693 0.57906,0.25234 1.20638,0.0751 1.79552,-0.0284 0.92645,-0.13058 1.87076,-0.13016 2.7744,-0.12755 0.62318,0.007 1.32909,0.0324 1.98418,0.0526 3.07469,0.10942 6.14368,0.38253 9.22131,0.39824 2.62383,-0.005 5.22222,-0.41529 7.83019,-0.65215 1.28511,-0.11716 2.56926,-0.30859 3.86303,-0.24706 10.3381,0.17082 20.66708,0.7076 31.00666,0.81328 6.43808,0.0818 12.8768,-0.0388 19.31197,-0.2364 7.12189,-0.21481 14.26722,0.0844 21.40726,0.31169 4.46191,0.15218 8.92382,0.3046 13.38573,0.45663 1.54875,-0.58247 3.10794,-1.19281 4.76013,-1.40456 1.01985,-0.20382 2.10456,-0.60754 2.71495,-1.49891 0.3407,-0.47154 0.15003,-1.21682 -0.4064,-1.42463 -0.62477,-0.29228 -1.31195,0.0268 -1.95879,-0.0873 -0.66985,-0.14207 -1.21347,-0.67694 -1.92922,-0.64153 z" />
  </g>
  <g
     inkscape:groupmode="layer"
     id="layer3"
     inkscape:label="Layer 2"
     style="display:inline">
    <g
       id="g1024"
       transform="translate(-84.4417,-26.417325)">
      <rect
         style="fill:#0082ff;fill-opacity:1;stroke:#000000;stroke-width:9.9999;stroke-linecap:round;stroke-linejoin:round;stroke-miterlimit:4;stroke-dasharray:none"
         id="rect860"
         width="120"
         height="120"
         x="187.32991"
         y="144.75064"
         ry="8" />
      <rect
         style="fill:#0082ff;fill-opacity:1;stroke:#000000;stroke-width:9.9999;stroke-linecap:round;stroke-linejoin:round;stroke-miterlimit:4;stroke-dasharray:none"
         id="rect883"
         width="120"
         height="120"
         x="187.32991"
         y="144.75064"
         ry="8" />
      <text
         xml:space="preserve"
         style="font-style:normal;font-weight:normal;font-size:66.1294px;line-height:1.25;font-family:sans-serif;letter-spacing:0px;word-spacing:0px;fill:#000000;fill-opacity:1;stroke:none;stroke-width:1"
         x="347.96533"
         y="222.80397"
         id="text889"><tspan
           sodipodi:role="line"
           id="tspan887"
           x="347.96533"
           y="222.80397"
           style="font-style:normal;font-variant:normal;font-stretch:normal;font-size:66.1294px;font-family:'Operator Mono';-inkscape-font-specification:'Operator Mono,  weight=330';font-variant-ligatures:normal;font-variant-caps:normal;font-variant-numeric:normal;font-variant-east-asian:normal;stroke-width:1">foo.js</tspan></text>
    </g>
    <g
       id="g1037"
       transform="translate(-487.0559,-26.417325)">
      <rect
         style="fill:#0082ff;fill-opacity:1;stroke:#000000;stroke-width:9.9999;stroke-linecap:round;stroke-linejoin:round;stroke-miterlimit:4;stroke-dasharray:none"
         id="rect964"
         width="120"
         height="120"
         x="1187.33"
         y="144.75064"
         ry="8" />
      <rect
         style="fill:#0082ff;fill-opacity:1;stroke:#000000;stroke-width:9.9999;stroke-linecap:round;stroke-linejoin:round;stroke-miterlimit:4;stroke-dasharray:none"
         id="rect966"
         width="120"
         height="120"
         x="1187.33"
         y="144.75064"
         ry="8" />
      <text
         xml:space="preserve"
         style="font-style:normal;font-weight:normal;font-size:66.1294px;line-height:1.25;font-family:sans-serif;letter-spacing:0px;word-spacing:0px;fill:#000000;fill-opacity:1;stroke:none;stroke-width:1"
         x="1347.9653"
         y="222.80397"
         id="text970"><tspan
           sodipodi:role="line"
           id="tspan968"
           x="1347.9653"
           y="222.80397"
           style="font-style:normal;font-variant:normal;font-stretch:normal;font-size:66.1294px;font-family:'Operator Mono';-inkscape-font-specification:'Operator Mono,  weight=330';font-variant-ligatures:normal;font-variant-caps:normal;font-variant-numeric:normal;font-variant-east-asian:normal;stroke-width:1">foo-ca15395c.js</tspan></text>
    </g>
    <path
       id="path923"
       style="fill:#000000;stroke-width:1"
       d="m 624.15579,160.85784 c -0.68025,-0.0572 -1.39451,0.2593 -1.718,0.87825 -0.39528,0.68931 -0.33658,1.68476 0.27167,2.23019 0.71613,0.49515 1.56818,0.74038 2.36859,1.06474 2.52963,0.94521 5.11158,1.74814 7.60824,2.78179 2.22132,0.90816 4.44428,1.82343 6.59137,2.89775 2.0973,1.18184 4.1203,2.49184 6.12692,3.82052 0.21234,0.14227 0.42325,0.28662 0.63217,0.43383 -1.33094,0.70361 -2.49477,1.67501 -3.66649,2.61017 -1.5671,1.31889 -3.12227,2.65279 -4.73813,3.91248 -2.75852,2.22866 -5.75899,4.16718 -8.31168,6.64305 -1.13328,1.12187 -2.22996,2.45364 -2.44217,4.0892 -0.18796,1.08337 0.19588,2.27813 1.0976,2.94159 0.37145,0.30313 0.83526,0.44454 1.25918,0.65398 0.64974,-0.11035 1.32319,-0.26289 1.87258,-0.64556 1.0579,-0.74475 1.65189,-1.93813 2.58061,-2.8157 2.04345,-2.06397 4.44967,-3.71568 6.59615,-5.66495 2.09382,-1.81753 4.08125,-3.75075 6.14177,-5.60467 0.91771,-0.82734 1.91465,-1.59255 3.07271,-2.05113 0.99729,-0.45779 2.09279,-0.90039 2.76272,-1.81499 0.4583,-0.64639 0.598,-1.56837 0.16353,-2.26414 -0.67311,-1.12643 -1.68906,-1.99229 -2.66937,-2.84335 -2.30848,-1.90889 -4.81973,-3.57441 -7.46825,-4.97301 -3.30106,-1.69073 -6.76064,-3.05177 -10.25995,-4.27142 -2.2586,-0.75837 -4.53487,-1.50799 -6.88801,-1.91397 -0.32652,-0.0448 -0.65376,-0.0878 -0.98376,-0.0947 z m 12.30439,11.98591 c -0.92007,0.041 -1.78306,0.4116 -2.66329,0.649 -0.63023,0.18189 -1.25626,0.40091 -1.8891,0.55977 -5.92152,-0.40694 -11.83967,-0.88893 -17.77453,-1.05802 -5.46489,-0.18279 -10.93444,-0.13817 -16.39913,0.0269 -12.74591,0.29186 -25.50853,0.0966 -38.26371,-0.25668 -4.24525,-0.10867 -8.49139,-0.23383 -12.73609,-0.33222 -2.64543,0.33336 -5.28164,0.75084 -7.93788,0.99095 -1.12824,0.0885 -2.28611,0.10468 -3.3841,0.0752 -3.6663,-0.0919 -7.3417,-0.31001 -11.00492,-0.0294 -1.19656,0.12444 -2.45154,0.22904 -3.52054,0.8291 -0.61474,0.34041 -1.02134,1.04952 -0.88979,1.75673 0.0214,0.25902 0.14604,0.50031 0.24184,0.72778 -0.10948,0.30371 0.27497,0.2729 0.46032,0.37693 0.57906,0.25234 1.20638,0.0751 1.79552,-0.0284 0.92645,-0.13058 1.87076,-0.13016 2.7744,-0.12755 0.62318,0.007 1.32909,0.0324 1.98418,0.0526 3.07469,0.10942 6.14368,0.38253 9.22131,0.39824 2.62383,-0.005 5.22222,-0.41529 7.83019,-0.65215 1.28511,-0.11716 2.56926,-0.30859 3.86303,-0.24706 10.3381,0.17082 20.66708,0.7076 31.00666,0.81328 6.43808,0.0818 12.8768,-0.0388 19.31197,-0.2364 7.12189,-0.21481 14.26722,0.0844 21.40726,0.31169 4.46191,0.15218 8.92382,0.3046 13.38573,0.45663 1.54875,-0.58247 3.10794,-1.19281 4.76013,-1.40456 1.01985,-0.20382 2.10456,-0.60754 2.71495,-1.49891 0.3407,-0.47154 0.15003,-1.21682 -0.4064,-1.42463 -0.62477,-0.29228 -1.31195,0.0268 -1.95879,-0.0873 -0.66985,-0.14207 -1.21347,-0.67694 -1.92922,-0.64153 z" />
  </g>
</svg>
