<?xml version="1.0" encoding="UTF-8" standalone="no"?>
<svg
   xmlns:dc="http://purl.org/dc/elements/1.1/"
   xmlns:cc="http://creativecommons.org/ns#"
   xmlns:rdf="http://www.w3.org/1999/02/22-rdf-syntax-ns#"
   xmlns:svg="http://www.w3.org/2000/svg"
   xmlns="http://www.w3.org/2000/svg"
   xmlns:sodipodi="http://sodipodi.sourceforge.net/DTD/sodipodi-0.dtd"
   xmlns:inkscape="http://www.inkscape.org/namespaces/inkscape"
   width="512"
   height="300"
   viewBox="0 0 512 300"
   version="1.1"
   preserveAspectRatio="xMidYMid"
   id="svg19"
   sodipodi:docname="logo-swc.svg"
   inkscape:version="1.0.2 (1.0.2+r75+1)">
  <metadata
     id="metadata23">
    <rdf:RDF>
      <cc:Work
         rdf:about="">
        <dc:format>image/svg+xml</dc:format>
        <dc:type
           rdf:resource="http://purl.org/dc/dcmitype/StillImage" />
        <dc:title></dc:title>
      </cc:Work>
    </rdf:RDF>
  </metadata>
  <sodipodi:namedview
     pagecolor="#ffffff"
     bordercolor="#666666"
     borderopacity="1"
     objecttolerance="10"
     gridtolerance="10"
     guidetolerance="10"
     inkscape:pageopacity="0"
     inkscape:pageshadow="2"
     inkscape:window-width="2560"
     inkscape:window-height="1406"
     id="namedview21"
     showgrid="false"
     inkscape:zoom="3.7363281"
     inkscape:cx="256.53528"
     inkscape:cy="90"
     inkscape:window-x="0"
     inkscape:window-y="0"
     inkscape:window-maximized="1"
     inkscape:current-layer="svg19" />
  <defs
     id="defs11">
    <linearGradient
       x1="-3.0090275e-05"
       y1="151.48735"
       x2="302.90154"
       y2="151.48735"
       id="linearGradient-1"
       gradientTransform="scale(1.6897739,0.59179514)"
       gradientUnits="userSpaceOnUse">
      <stop
         stop-color="#FFA588"
         offset="0%"
         id="stop2" />
      <stop
         stop-color="#FCB371"
         offset="27.1%"
         id="stop4" />
      <stop
         stop-color="#F4D837"
         offset="83.57%"
         id="stop6" />
      <stop
         stop-color="#F1E425"
         offset="100%"
         id="stop8" />
    </linearGradient>
  </defs>
  <g
     id="g17"
     transform="translate(0.09600975,60.376925)">
    <path
       d="m 460.92418,179.24615 c -13.76231,0 -26.73368,-5.37837 -36.48857,-15.13326 l -75.9827,-75.982699 c -7.64572,-7.645726 -12.65499,-17.189702 -14.44778,-27.577343 -1.05459,-6.063852 -1.00186,-12.285891 0.15818,-18.349743 H 311.7007 c -5.48383,0 -7.80391,3.638311 -8.70031,5.800206 -0.8964,2.161895 -1.84552,6.380227 2.05644,10.282184 l 32.85025,32.850257 c 7.64573,7.645726 12.655,17.189698 14.44779,27.577338 1.68733,9.59671 0.52729,19.50979 -3.21648,28.68466 -3.7965,9.12214 -10.01854,16.92606 -17.98064,22.56807 -8.64758,6.06386 -18.87703,9.28033 -29.68651,9.28033 h -1.05458 c -13.76231,0 -26.73368,-5.37837 -36.48857,-15.13326 l -7.27662,-7.27662 c -3.48012,5.11472 -7.80391,9.54397 -12.86591,13.07682 -8.64758,6.06386 -18.87704,9.28033 -29.68651,9.28033 -13.76231,0 -26.73368,-5.37837 -36.48857,-15.13326 L 58.442614,44.892292 c -1.792791,-1.792791 -4.165603,-2.741916 -6.643873,-2.741916 -5.483831,0 -7.803913,3.638311 -8.700309,5.800206 -0.896395,2.161895 -1.84552,6.380227 2.056437,10.282183 l 32.850258,32.850258 c 7.645726,7.645726 12.654994,17.189697 14.447785,27.577347 1.687333,9.5967 0.527292,19.50978 -3.216478,28.68465 -3.796498,9.12214 -10.018537,16.92606 -17.980638,22.56807 -8.64758,6.06386 -18.877034,9.28033 -29.686509,9.28033 H 26.541481 c -11.653141,0 -21.0916583,-9.43851 -21.0916583,-21.09165 0,-11.65315 9.4385173,-21.09166 21.0916583,-21.09166 h 14.81689 c 5.483831,0 7.803913,-3.63831 8.700308,-5.80021 0.896396,-2.16189 1.845521,-6.38022 -2.056436,-10.28218 L 15.204715,88.130191 C 7.5589885,80.484465 2.5497197,70.940489 0.75692876,60.552848 -0.93040388,50.956144 0.22963731,41.043064 3.9734066,31.868193 7.7699051,22.746051 13.991944,14.942137 21.954045,9.3001188 30.601625,3.2362671 40.883808,0.01978922 51.693283,0.01978922 c 13.762307,0 26.733677,5.37837278 36.488568,15.13326478 L 207.34972,134.32092 c 1.79279,1.79279 4.1656,2.74192 6.64387,2.74192 5.48383,0 7.80391,-3.63831 8.70031,-5.80021 0.8964,-2.16189 1.84552,-6.38022 -2.00371,-10.22945 L 135.69081,36.033795 c -8.22575,-8.225746 -8.22575,-21.56622 0,-29.8446958 8.22575,-8.2784758 21.56622,-8.2257466 29.8447,0 l 84.94665,84.9466528 c 0.0527,0.05273 0.0527,0.05273 0.10546,0.105458 l 43.07971,43.07971 c 1.79279,1.79279 4.1656,2.74192 6.64387,2.74192 h 1.05459 c 5.48383,0 7.80391,-3.63831 8.70031,-5.80021 0.89639,-2.16189 1.84551,-6.38022 -2.05644,-10.28218 L 275.21213,88.130191 c -7.64573,-7.645726 -12.65499,-17.189702 -14.44779,-27.577343 -1.68733,-9.596704 -0.52729,-19.509784 3.21648,-28.684655 3.7965,-9.122142 10.01854,-16.926056 17.98064,-22.5680742 8.64758,-6.0638517 18.92976,-9.28032958 29.73924,-9.28032958 h 85.89578 c 11.65314,0 21.09165,9.43851698 21.09165,21.09165778 0,11.653141 -9.43851,21.091658 -21.09165,21.091658 h -12.655 c -5.48383,0 -7.80391,3.638311 -8.70031,5.800206 -0.89639,2.161895 -1.84552,6.380227 2.05644,10.282184 l 75.9827,75.982695 c 1.79279,1.79279 4.1656,2.74192 6.64387,2.74192 4.79835,0 8.70031,-3.90196 8.70031,-8.70031 0,-11.65314 9.43851,-21.09166 21.09166,-21.09166 11.65314,0 21.09174,9.43852 21.09174,21.09166 0.0526,28.10463 -22.83181,50.93635 -50.88371,50.93635 z"
       fill="url(#linearGradient-1)"
       id="path13"
       style="fill:url(#linearGradient-1)" />
    <path
       d="m 460.92418,160.79095 c -8.8585,0 -17.1897,-3.42739 -23.46447,-9.70216 l -75.9827,-75.982698 c -9.64943,-9.649434 -12.39135,-23.517199 -7.17116,-36.119465 2.68918,-6.432955 7.0657,-11.653141 12.49681,-15.185993 H 311.7007 c -11.49496,0 -21.35531,6.591143 -25.78455,17.189701 -4.42925,10.598558 -2.05644,22.251699 6.06385,30.371988 l 32.85026,32.850257 c 9.64943,9.64943 12.39134,23.5172 7.17116,36.11946 -5.22019,12.60227 -16.97879,20.45891 -30.63563,20.45891 h -1.05459 c -8.85849,0 -17.1897,-3.42739 -23.46447,-9.70216 l -30.31926,-30.31926 c 1.37096,6.38023 0.73821,13.12956 -1.89825,19.56251 -5.22018,12.60227 -16.97878,20.45891 -30.63563,20.45891 -8.85849,0 -17.1897,-3.42739 -23.46447,-9.70216 L 71.361254,31.920922 c -5.272914,-5.272914 -12.285891,-8.173017 -19.7207,-8.173017 -11.494954,0 -21.355304,6.591143 -25.784552,17.189701 -4.376519,10.598558 -2.056437,22.251699 6.063852,30.371988 l 32.850257,32.850256 c 9.649434,9.64944 12.391349,23.5172 7.171164,36.11946 -5.220186,12.60227 -16.978785,20.45891 -30.635634,20.45891 h -14.76416 c -1.476416,0 -2.636458,-1.16004 -2.636458,-2.63645 0,-1.47642 1.160042,-2.63646 2.636458,-2.63646 h 14.81689 c 11.494953,0 21.355303,-6.59114 25.784552,-17.1897 4.429248,-10.59856 2.056436,-22.2517 -6.063852,-30.37199 L 28.228813,75.053363 C 18.57938,65.456658 15.837464,51.588893 21.05765,38.986627 26.277835,26.331633 37.983705,18.47499 51.693283,18.47499 c 8.858496,0 17.189701,3.427394 23.46447,9.702163 L 194.32562,147.34502 c 5.27291,5.27291 12.28589,8.17302 19.7207,8.17302 11.49496,0 21.3553,-6.59115 25.78455,-17.1897 4.37652,-10.59856 2.10917,-22.19897 -6.01112,-30.31926 L 148.76764,23.009696 c -1.05458,-1.054582 -1.05458,-2.689186 0,-3.743769 1.05458,-1.054583 2.68919,-1.054583 3.74377,0 l 84.94665,84.946653 c 0,0 0.0527,0.0527 0.0527,0.0527 l 43.07971,43.07971 c 5.27292,5.27291 12.28589,8.17302 19.7207,8.17302 h 1.05459 c 11.49495,0 21.3553,-6.59115 25.78455,-17.1897 4.37652,-10.59856 2.05643,-22.2517 -6.06385,-30.37199 L 288.23623,75.106092 c -9.64944,-9.649434 -12.39135,-23.517199 -7.17117,-36.119465 5.22019,-12.602265 16.97879,-20.458908 30.63564,-20.458908 h 85.89578 c 1.47641,0 2.63645,1.160041 2.63645,2.636457 0,1.476416 -1.16004,2.636458 -2.63645,2.636458 h -12.655 c -11.49495,0 -21.3553,6.591143 -25.78455,17.189701 -4.37652,10.598558 -2.05644,22.251699 6.06385,30.371988 l 75.9827,75.982697 c 5.27291,5.27291 12.28589,8.17302 19.7207,8.17302 14.97508,0 27.15551,-12.18043 27.15551,-27.15551 0,-1.47642 1.16004,-2.63646 2.63646,-2.63646 1.47641,0 2.6366,1.16004 2.6366,2.63646 0.0526,17.87518 -14.50066,32.42842 -32.42857,32.42842 z"
       fill="#ffffff"
       id="path15" />
  </g>
</svg>
