<?xml version="1.0" encoding="UTF-8" standalone="no"?>
<svg
   xmlns:dc="http://purl.org/dc/elements/1.1/"
   xmlns:cc="http://creativecommons.org/ns#"
   xmlns:rdf="http://www.w3.org/1999/02/22-rdf-syntax-ns#"
   xmlns:svg="http://www.w3.org/2000/svg"
   xmlns="http://www.w3.org/2000/svg"
   xmlns:sodipodi="http://sodipodi.sourceforge.net/DTD/sodipodi-0.dtd"
   xmlns:inkscape="http://www.inkscape.org/namespaces/inkscape"
   width="512"
   height="400"
   viewBox="0 0 512 400"
   version="1.1"
   preserveAspectRatio="xMidYMid"
   id="svg18"
   sodipodi:docname="logo-dojo.svg"
   inkscape:version="1.0.2 (1.0.2+r75+1)">
  <metadata
     id="metadata24">
    <rdf:RDF>
      <cc:Work
         rdf:about="">
        <dc:format>image/svg+xml</dc:format>
        <dc:type
           rdf:resource="http://purl.org/dc/dcmitype/StillImage" />
        <dc:title></dc:title>
      </cc:Work>
    </rdf:RDF>
  </metadata>
  <defs
     id="defs22" />
  <sodipodi:namedview
     pagecolor="#ffffff"
     bordercolor="#666666"
     borderopacity="1"
     objecttolerance="10"
     gridtolerance="10"
     guidetolerance="10"
     inkscape:pageopacity="0"
     inkscape:pageshadow="2"
     inkscape:window-width="2688"
     inkscape:window-height="1478"
     id="namedview20"
     showgrid="false"
     inkscape:zoom="3.3179916"
     inkscape:cx="256.60277"
     inkscape:cy="119.5"
     inkscape:window-x="0"
     inkscape:window-y="0"
     inkscape:window-maximized="1"
     inkscape:current-layer="svg18" />
  <g
     id="g16"
     transform="translate(-0.4989487,80.9595)">
    <path
       d="m 130.87339,0 h 24.00611 v 193.0769 h -24.00611 v -17.8202 c -14.06952,13.90884 -33.179199,22.17569 -53.392719,22.17569 -26.408422,0 -61.26634,-16.13748 -73.2698952,-55.74313 -1.1537466,-3.66484 -2.1967095,-8.62515 -2.4003119,-11.09034 -1.37631185,-16.62852 -0.7455438,-17.7623 0,-23.56497 C 7.9035633,59.617559 46.270628,40.200483 77.480671,40.200483 c 14.932834,0 28.519299,4.108975 39.994889,11.088343 l -3.36244,22.078878 c -9.60124,-8.11515 -22.083865,-13.363899 -36.632449,-13.363899 -31.210043,0 -56.464718,26.04014 -56.464718,58.219295 0,29.70198 22.853365,59.40697 56.464718,59.40697 22.182674,0 44.365349,-13.95674 53.392719,-36.83506 V 0"
       fill="#353535"
       id="path2" />
    <path
       d="m 237.34643,40.648608 c -31.37172,0 -71.79677,18.793294 -76.06144,65.409252 -0.52497,5.74278 -1.03198,11.90974 0,23.06195 0.22356,2.41329 1.25355,7.26781 2.41329,10.8548 12.06643,38.7603 47.103,54.55445 73.64815,54.55445 41.02288,0 77.22118,-32.75203 77.22118,-77.52059 0,-41.184564 -32.62528,-76.359862 -77.22118,-76.359862 z m 0,134.500302 c -33.78501,0 -56.75615,-29.07222 -56.75615,-58.14044 0,-31.494489 25.38443,-56.978716 56.75615,-56.978716 34.94275,0 57.91589,29.071221 57.91589,56.978716 0,35.07948 -28.95745,58.14044 -57.91589,58.14044 z"
       fill="#353535"
       id="path4" />
    <path
       d="m 273.92,17.024748 c 0,2.442231 -1.31743,2.442231 -2.53405,3.299556 h -65.83342 c 0,-0.857325 -1.31543,-0.857325 -1.31543,-3.299556 0,-1.649777 1.31543,-1.649777 2.53305,-2.507103 h 65.83242 c 0,0.857326 1.31743,0.857326 1.31743,2.507103"
       fill="#8c8c8c"
       id="path6" />
    <path
       d="m 328.2958,6.3755478 h 19.26737 V 35.322012 H 328.2958 Z"
       fill="#353535"
       id="path8" />
    <path
       d="m 347.56317,183.28103 c 1.34537,23.06096 -28.32169,54.79997 -28.32169,54.79997 l -12.57244,-17.55372 c 16.3301,-11.57938 21.43513,-29.91757 21.82038,-38.45289 L 328.2958,44.970168 h 19.26737 V 183.28103"
       fill="#353535"
       id="path10" />
    <path
       d="m 434.77782,40.648608 c -31.36973,0 -71.79477,18.792297 -76.06044,65.409252 -0.52498,5.74178 -1.03198,11.90874 0,23.06195 0.22456,2.41329 1.25455,7.26781 2.41428,10.8538 12.06444,38.7613 47.10301,54.55645 73.64616,54.55645 C 475.8027,194.53006 512,161.77703 512,117.00747 512,75.822908 479.37472,40.648608 434.77782,40.648608 Z m 0,134.498312 c -33.78301,0 -56.75315,-29.06923 -56.75315,-58.13945 0,-31.494487 25.38342,-56.979712 56.75315,-56.979712 34.94475,0 57.91689,29.072219 57.91689,56.979712 0,35.08048 -28.95845,58.13945 -57.91689,58.13945 z"
       fill="#353535"
       id="path12" />
    <path
       d="m 468.44906,17.024748 c 0,2.442231 -1.31543,2.442231 -2.53205,3.299556 h -65.83442 c 0,-0.857325 -1.31543,-0.857325 -1.31543,-3.299556 0,-1.649777 1.31543,-1.649777 2.53205,-2.507103 h 65.83442 c 0,0.857326 1.31543,0.857326 1.31543,2.507103"
       fill="#8c8c8c"
       id="path14" />
  </g>
</svg>
