<?xml version="1.0" encoding="UTF-8" standalone="no"?>
<svg
   xmlns:dc="http://purl.org/dc/elements/1.1/"
   xmlns:cc="http://creativecommons.org/ns#"
   xmlns:rdf="http://www.w3.org/1999/02/22-rdf-syntax-ns#"
   xmlns:svg="http://www.w3.org/2000/svg"
   xmlns="http://www.w3.org/2000/svg"
   xmlns:sodipodi="http://sodipodi.sourceforge.net/DTD/sodipodi-0.dtd"
   xmlns:inkscape="http://www.inkscape.org/namespaces/inkscape"
   width="710"
   height="500"
   id="svg2"
   version="1.1"
   inkscape:version="1.0.2 (1.0.2+r75+1)"
   sodipodi:docname="logo-yahoo.svg"
   inkscape:export-filename="C:\Users\tjdru\OneDrive\Pictures\Logos\Internet\yahoologo1996.png"
   inkscape:export-xdpi="135.38089"
   inkscape:export-ydpi="135.38089">
  <defs
     id="defs4">
    <filter
       id="filter4225"
       inkscape:label="Drop Shadow"
       style="color-interpolation-filters:sRGB">
      <feFlood
         id="feFlood4227"
         flood-opacity="0.5"
         flood-color="rgb(0,0,0)"
         result="flood" />
      <feComposite
         id="feComposite4229"
         in2="SourceGraphic"
         in="flood"
         operator="in"
         result="composite1" />
      <feOffset
         id="feOffset4231"
         dx="4"
         dy="4"
         result="offset" />
      <feComposite
         id="feComposite4233"
         in2="offset"
         in="SourceGraphic"
         operator="over"
         result="composite2" />
    </filter>
  </defs>
  <sodipodi:namedview
     id="base"
     pagecolor="#ffffff"
     bordercolor="#666666"
     borderopacity="1.0"
     inkscape:pageopacity="0.0"
     inkscape:pageshadow="2"
     inkscape:zoom="1"
     inkscape:cx="307.39277"
     inkscape:cy="82.193092"
     inkscape:document-units="px"
     inkscape:current-layer="g536"
     showgrid="false"
     inkscape:window-width="2688"
     inkscape:window-height="1478"
     inkscape:window-x="0"
     inkscape:window-y="0"
     inkscape:window-maximized="1"
     fit-margin-top="0"
     fit-margin-left="0"
     fit-margin-right="0"
     fit-margin-bottom="0"
     inkscape:document-rotation="0"
     inkscape:snap-bbox="false"
     inkscape:snap-global="false" />
  <metadata
     id="metadata7">
    <rdf:RDF>
      <cc:Work
         rdf:about="">
        <dc:format>image/svg+xml</dc:format>
        <dc:type
           rdf:resource="http://purl.org/dc/dcmitype/StillImage" />
        <dc:title></dc:title>
      </cc:Work>
    </rdf:RDF>
  </metadata>
  <g
     inkscape:label="Layer 1"
     inkscape:groupmode="layer"
     id="layer1"
     transform="translate(248.82414,-1075.2504)"
     style="display:inline;opacity:1">
    <g
       id="g536">
      <g
         id="g1363"
         transform="translate(0.444795,180.52449)">
        <path
           id="path149-9"
           style="display:inline;opacity:0.4;fill:#000000;fill-opacity:1;fill-rule:evenodd;stroke:none;stroke-width:0.0754317"
           d="m 421.70199,1079.7817 c 0.84518,28.2076 2.09699,56.4983 0.68922,84.2553 l 15.00178,1.4545 c 12.5319,-56.0192 15.68254,-62.8043 21.14662,-81.7177 z m -665.83863,8.1275 0.14322,8.3736 c 4.80783,0.9501 24.6394,3.1942 27.52414,4.1443 10.57725,8.0757 53.08042,61.0115 55.00358,66.237 v 30.7107 c 0,4.7505 -3.84774,5.4179 -8.65556,6.843 -4.80783,1.4252 -14.74802,1.4015 -20.03669,0.9264 l -0.96225,8.9241 c 8.65412,0.4751 34.6301,-0.4744 42.80344,-0.4744 16.34665,0 44.93191,-0.475 48.77819,0 l 0.96223,-9.3985 -30.5093,-0.4878 c 0,0 -0.83436,-34.8422 -0.35357,-37.6925 3.36546,-9.0259 50.8159,-45.9702 56.10455,-47.3952 4.80784,-0.9501 19.09688,-4.0228 22.4624,-4.4979 l 5.90763,-8.7361 -81.87433,-0.7071 1.88417,9.4343 c 2.88468,0 19.75615,2.5945 25.04475,3.5446 -0.96153,7.6006 -34.50854,31.3168 -38.3548,36.5422 -6.73102,-9.5009 -28.32109,-36.4622 -41.78301,-55.939 5.2886,-1.4251 25.00069,-1.9007 29.32776,-2.8508 l 1.2621,-7.3264 z m 587.21797,97.4988 c 40.80157,-1.2505 66.70248,-19.2352 66.70248,-47.2789 0,-24.9089 -22.34454,-41.757 -59.15235,-42.7232 -2.45385,-0.064 -4.97003,-0.057 -7.55013,0.023 -41.2813,1.2651 -66.9469,18.7641 -66.70694,46.7864 0.2401,28.0352 25.42564,44.458 66.70694,43.1927 z M 95.5742,1106.0393 c 4.48887,0.4933 17.17439,2.1562 21.16452,2.6495 l -0.80111,32.4696 c -20.01607,0.7368 -41.33952,0.8177 -62.2807,1.092 l 0.71607,-16.7114 c 0.10427,-2.4371 0.90852,-6.7714 0.90852,-6.7714 4.48887,-0.5311 18.25052,-1.656 21.74187,-1.656 l 0.62655,-7.6486 c -13.65807,0.3619 -49.44324,0.3271 -66.14749,0.3133 l 0.87719,7.2055 c 3.6809,0.1325 21.25402,1.3516 21.25402,1.3516 0.49862,4.4395 0.50572,16.2821 0.50572,20.7215 v 12.3299 c 0,9.8654 -0.44105,19.4165 -0.93983,25.3357 -2.99258,0.4932 -15.58614,2.0363 -20.57376,2.0363 l -0.43412,9.13 c 15.86957,-0.078 47.86295,-0.2326 64.39758,0 l 0.29092,-8.7406 c -3.99013,-0.4933 -21.2048,-2.1572 -21.2048,-2.1572 0,0 -1.33462,-4.3574 -1.48586,-11.1215 l -0.25062,-11.1843 c 7.3293,-1.1628 55.16802,-3.0444 62.18671,-3.2178 l 0.12534,25.6668 c -2.99255,0.4933 -17.35937,1.5799 -19.85322,1.5799 l 0.45651,8.3333 c 15.71159,0.069 33.91566,0.2218 51.61563,0.2775 l 0.43414,-7.7157 c -3.49135,-0.4933 -14.93019,-1.7231 -14.93019,-1.7231 l -1.95131,-69.1953 c 3.99012,-0.4933 14.21115,-3.5267 17.20372,-3.5267 l 0.50126,-6.2567 c -9.97527,0.4933 -43.94277,0.2292 -53.41928,-0.264 z m 247.02377,67.0918 c -18.73859,0.3282 -43.66719,-7.9994 -43.66719,-31.6058 0,-23.6062 24.92709,-33.2154 43.66719,-33.7898 1.17128,-0.036 2.3656,-0.038 3.57591,0 18.15474,0.4997 39.87079,8.993 40.09578,31.1146 0.23994,23.5915 -24.95154,33.9532 -43.67169,34.281 z M 209.6943,1112.1573 c -38.04541,0.9856 -58.19458,16.9378 -58.19458,41.2504 0,22.91 21.98159,39.1721 58.19458,38.234 36.213,-0.9381 58.42863,-17.4095 58.65557,-41.2639 0.23132,-24.3176 -22.44257,-39.1586 -58.65557,-38.2205 z m 0,10.7546 c 15.58711,-0.4038 38.49355,6.0147 38.49355,27.9896 0,21.5073 -22.90646,29.5819 -38.49355,29.9857 -15.58706,0.4037 -38.49353,-6.0193 -38.49353,-27.9941 0,-21.5074 22.90647,-29.5774 38.49353,-29.9812 z m -266.93964,10.6561 10.68745,3.455 c 0,0 -23.08452,45.6698 -27.5376,51.8931 -3.56243,0.9575 -11.05894,3.1733 -14.62137,3.652 l -2.52416,8.7138 c 2.67185,-0.4787 39.94363,-0.1297 43.50606,-0.1297 l 0.82797,-8.5079 -12.34336,-2.5555 c -0.32284,-2.249 4.21412,-11.6882 8.04243,-15.6865 4.00776,-0.9575 25.99356,-1.4366 25.99356,-1.4367 l 12.18222,25.9175 c 0,0 -12.36353,2.2691 -16.37127,2.2691 l -1.02041,8.2707 51.20838,0.3043 0.20577,-7.7426 c -3.11717,0.4788 -12.60297,-2.7704 -16.16541,-3.2492 -4.00779,-6.702 -20.29857,-44.9797 -26.97815,-62.2135 l 11.67204,-2.7972 1.68724,-5.8181 H -27.0494 c -6.67959,0 -27.89121,0.1251 -30.562965,-0.3536 z m 20.45741,5.6211 9.65806,26.6828 h -21.20031 c 1.33593,-3.351 11.54225,-26.6828 11.54225,-26.6828 z m 455.79573,56.485 c 5.90539,0.3212 9.60926,0.723 16.67114,1.2711 l 2.55102,-17.2217 c -7.09346,0.01 -12.29027,-0.5741 -19.3296,-1.6604 z m 32.72135,-19.5588 c -4.67475,0 -8.55263,3.5862 -8.55263,8.4631 0,4.8653 3.87775,8.4989 8.55263,8.4989 4.57496,0 8.55714,-3.6219 8.55712,-8.4989 0,-4.8769 -3.98216,-8.4631 -8.55712,-8.4631 z m 0,1.4903 c 3.77992,0 6.81015,3.0257 6.81168,6.9549 0,4.0217 -3.03199,7.0668 -6.81168,7.0668 -3.92606,0 -6.85643,-3.0335 -6.85643,-7.0668 0,-3.9292 2.93037,-6.9549 6.85643,-6.9549 z m -3.28052,2.0945 v 9.7431 h 1.43662 v -4.0816 h 1.74544 l 2.53759,4.0816 h 1.64699 l -2.78822,-4.2338 c 1.44418,-0.2307 2.58681,-1.0396 2.58681,-2.6808 0,-1.8953 -1.19378,-2.8285 -3.53113,-2.8285 z m 1.43662,1.2934 h 2.0453 c 0.9962,0 2.13929,0.2325 2.13929,1.4456 0,1.4909 -1.19183,1.5485 -2.38544,1.5485 h -1.79915 z"
           sodipodi:nodetypes="cccccccccccccccccccccccccccccccccccccccccccccccccccccccccccccccccccccccccccccccccccccccccccccccccccccccccccccccccccccccccccccccccccccccccccccc" />
        <path
           id="path149"
           style="display:inline;opacity:1;fill:#ff0132;fill-opacity:1;fill-rule:evenodd;stroke:none;stroke-width:0.0754317"
           d="m 666.26344,0.16921 c 0.84518,28.207544 2.09699,56.498291 0.68922,84.255269 l 15.00178,1.454539 C 694.48634,29.859753 697.63698,23.074654 703.10106,4.1613384 Z M 0.42481,8.2966592 0.56802516,16.670278 C 5.3758614,17.620379 25.207427,19.86448 28.09217,20.814581 38.669424,28.890289 81.172591,81.826052 83.095753,87.051573 v 30.710717 c 0,4.75048 -3.847745,5.41787 -8.655558,6.84301 -4.807837,1.42516 -14.748023,1.40146 -20.036695,0.9264 l -0.962246,8.92409 c 8.654115,0.47506 34.630092,-0.47439 42.803438,-0.47439 16.346648,0 44.931908,-0.47505 48.778188,0 l 0.96223,-9.39849 -30.5093,-0.48783 c 0,0 -0.83436,-34.842141 -0.35357,-37.692444 3.36546,-9.025923 50.8159,-45.970213 56.10455,-47.39526 4.80784,-0.950078 19.09688,-4.022811 22.4624,-4.49785 l 5.90763,-8.736126 -81.87433,-0.707138 1.88417,9.434305 c 2.88468,0 19.75615,2.594485 25.04475,3.544586 -0.96153,7.600693 -34.50854,31.316803 -38.3548,36.542232 C 99.565588,65.086514 77.975524,38.125239 64.513597,18.648435 69.802201,17.223294 89.51429,16.74766 93.841359,15.797559 L 95.103463,8.4712213 Z M 520.93584,62.602618 c 0.2401,28.035321 25.42564,44.458032 66.70694,43.192792 40.80157,-1.25055 66.70248,-19.235185 66.70248,-47.278892 0,-24.908921 -22.34454,-41.757006 -59.15235,-42.723149 -2.45385,-0.06467 -4.97003,-0.05711 -7.55013,0.02264 -41.2813,1.265245 -66.9469,18.764281 -66.70694,46.786609 z M 340.13565,26.426805 c 4.48887,0.493279 17.17439,2.156203 21.16452,2.649481 l -0.80111,32.469582 c -20.01607,0.736836 -41.33952,0.817747 -62.2807,1.09201 l 0.71607,-16.711422 c 0.10427,-2.437041 0.90852,-6.771397 0.90852,-6.771397 4.48887,-0.531019 18.25052,-1.655934 21.74187,-1.655934 l 0.62655,-7.648583 c -13.65807,0.361865 -49.44324,0.327034 -66.14749,0.313286 l 0.87719,7.20551 c 3.6809,0.132445 21.25402,1.351607 21.25402,1.351607 0.49862,4.439464 0.50572,16.282075 0.50572,20.721447 v 12.329932 c 0,9.865394 -0.44105,19.416448 -0.93983,25.335657 -2.99258,0.493256 -15.58614,2.036337 -20.57376,2.036337 l -0.43412,9.129962 c 15.86957,-0.0777 47.86295,-0.23259 64.39758,0 l 0.29092,-8.7406 c -3.99013,-0.493279 -21.2048,-2.157188 -21.2048,-2.157188 0,0 -1.33462,-4.357407 -1.48586,-11.121539 l -0.25062,-11.184211 c 7.3293,-1.162816 55.16802,-3.044411 62.18671,-3.217873 l 0.12534,25.666839 c -2.99255,0.493256 -17.35937,1.579857 -19.85322,1.579857 l 0.45651,8.333335 c 15.71159,0.069 33.91566,0.22181 51.61563,0.27747 l 0.43414,-7.71572 c -3.49135,-0.49326 -14.93019,-1.723051 -14.93019,-1.723051 l -1.95131,-69.195313 c 3.99012,-0.493278 14.21115,-3.526668 17.20372,-3.526668 l 0.50126,-6.256715 c -9.97527,0.493302 -43.94277,0.229236 -53.41928,-0.264043 z m 247.02377,67.091838 c -18.73859,0.32818 -43.66719,-7.999427 -43.66719,-31.6058 0,-23.606282 24.92709,-33.215446 43.66719,-33.78982 1.17128,-0.03597 2.3656,-0.03804 3.57591,-0.0045 18.15474,0.501984 39.87079,8.995285 40.09578,31.118 0.23994,23.592562 -24.95154,33.954306 -43.67169,34.28212 z M 454.25575,32.544797 c -38.04541,0.985596 -58.19458,16.937771 -58.19458,41.250436 0,22.910004 21.98159,39.172077 58.19458,38.233977 36.213,-0.93814 58.42863,-17.409507 58.65557,-41.263883 0.23132,-24.317591 -22.44257,-39.158647 -58.65557,-38.22053 z m 0,10.754565 c 15.58711,-0.403797 38.49355,6.014693 38.49355,27.989606 0,21.507343 -22.90646,29.581882 -38.49355,29.985682 -15.58706,0.40377 -38.49353,-6.019209 -38.49353,-27.994098 0,-21.507343 22.90647,-29.577391 38.49353,-29.98119 z m -266.93964,10.656102 10.68745,3.45506 c 0,0 -23.08452,45.669766 -27.5376,51.893116 -3.56243,0.95745 -11.05894,3.17328 -14.62137,3.65198 l -2.52416,8.71376 c 2.67185,-0.47873 39.94363,-0.1297 43.50606,-0.1297 l 0.82797,-8.50787 -12.34336,-2.5555 c -0.32284,-2.24901 4.21412,-11.688243 8.04243,-15.686536 4.00776,-0.957433 25.99356,-1.43662 25.99356,-1.436642 l 12.18222,25.917468 c 0,0 -12.36353,2.26908 -16.37127,2.26908 l -1.02041,8.27067 51.20838,0.30432 0.20577,-7.74255 c -3.11717,0.47873 -12.60297,-2.77047 -16.16541,-3.2492 -4.00779,-6.70207 -20.29857,-44.979731 -26.97815,-62.213557 l 11.67204,-2.797187 1.68724,-5.81811 h -18.25545 c -6.67959,0 -27.89121,0.125113 -30.56297,-0.353593 z m 20.45741,5.621184 9.65806,26.682773 h -21.20031 c 1.33593,-3.351029 11.54225,-26.682773 11.54225,-26.682773 z M 663.56925,116.0616 c 5.90539,0.32122 9.60926,0.723 16.67114,1.27105 l 2.55102,-17.22164 c -7.09346,0.005 -12.29027,-0.57407 -19.3296,-1.660404 z m 36.69883,-15.75813 c -4.67475,0 -8.55263,3.58622 -8.55263,8.46312 0,4.86532 3.87775,8.49892 8.55263,8.49892 4.57496,0 8.55714,-3.62195 8.55712,-8.49892 0,-4.8769 -3.98216,-8.46312 -8.55712,-8.46312 z m 0,1.49033 c 3.77992,0 6.81015,3.02573 6.81168,6.95489 0,4.02167 -3.03199,7.06676 -6.81168,7.06676 -3.92606,0 -6.85643,-3.03343 -6.85643,-7.06676 0,-3.92916 2.93037,-6.95489 6.85643,-6.95489 z m -3.28052,2.09451 v 9.7431 h 1.43662 v -4.08162 h 1.74544 l 2.53759,4.08162 h 1.64699 l -2.78822,-4.23378 c 1.44418,-0.23077 2.58681,-1.03963 2.58681,-2.6808 0,-1.89531 -1.19378,-2.82852 -3.53113,-2.82852 z m 1.43662,1.29341 h 2.0453 c 0.9962,0 2.13929,0.23248 2.13929,1.44558 0,1.49085 -1.19183,1.54853 -2.38544,1.54853 h -1.79915 z"
           sodipodi:nodetypes="cccccccccccccccccccccccccccccccccccccccccccccccccccccccccccccccccccccccccccccccccccccccccccccccccccccccccccccccccccccccccccccccccccccccccccccc"
           transform="translate(-249.24895,1075.0812)" />
      </g>
    </g>
  </g>
</svg>
