<?xml version="1.0" encoding="UTF-8" standalone="no"?>
<svg
   xmlns:dc="http://purl.org/dc/elements/1.1/"
   xmlns:cc="http://creativecommons.org/ns#"
   xmlns:rdf="http://www.w3.org/1999/02/22-rdf-syntax-ns#"
   xmlns:svg="http://www.w3.org/2000/svg"
   xmlns="http://www.w3.org/2000/svg"
   xmlns:xlink="http://www.w3.org/1999/xlink"
   xmlns:sodipodi="http://sodipodi.sourceforge.net/DTD/sodipodi-0.dtd"
   xmlns:inkscape="http://www.inkscape.org/namespaces/inkscape"
   viewBox="0 0 100 100"
   version="1.1"
   id="svg20"
   sodipodi:docname="logo-svgo.svg"
   width="100"
   height="100"
   inkscape:version="1.0.2 (1.0.2+r75+1)">
  <metadata
     id="metadata24">
    <rdf:RDF>
      <cc:Work
         rdf:about="">
        <dc:format>image/svg+xml</dc:format>
        <dc:type
           rdf:resource="http://purl.org/dc/dcmitype/StillImage" />
        <dc:title></dc:title>
      </cc:Work>
    </rdf:RDF>
  </metadata>
  <sodipodi:namedview
     pagecolor="#ffffff"
     bordercolor="#666666"
     borderopacity="1"
     objecttolerance="10"
     gridtolerance="10"
     guidetolerance="10"
     inkscape:pageopacity="0"
     inkscape:pageshadow="2"
     inkscape:window-width="2560"
     inkscape:window-height="1406"
     id="namedview22"
     showgrid="false"
     fit-margin-top="0"
     fit-margin-left="0"
     fit-margin-right="0"
     fit-margin-bottom="0"
     inkscape:zoom="5.4875078"
     inkscape:cx="-73.940543"
     inkscape:cy="49.95"
     inkscape:window-x="0"
     inkscape:window-y="0"
     inkscape:window-maximized="1"
     inkscape:current-layer="svg20" />
  <defs
     id="defs10">
    <linearGradient
       id="a"
       x1="263.35999"
       y1="14.74"
       x2="333.47"
       y2="84.849998"
       gradientUnits="userSpaceOnUse">
      <stop
         offset="0"
         stop-color="#45afe4"
         id="stop2" />
      <stop
         offset="1"
         stop-color="#364f9e"
         id="stop4" />
    </linearGradient>
    <linearGradient
       id="b"
       x1="262.64001"
       y1="15.46"
       x2="332.75"
       y2="85.57"
       xlink:href="#a"
       gradientTransform="translate(-248.61,-0.05)" />
    <style
       id="style8">
      .text {
        fill: #1d1d1b;
      }
      .gear {
        fill: url(#a);
      }
      .dots {
        fill: url(#b);
      }
      @media (prefers-color-scheme: dark) {
        .text,.gear,.dots {
          fill: #ffffff;
        }
      }
    </style>
    <linearGradient
       inkscape:collect="always"
       xlink:href="#a"
       id="linearGradient26"
       gradientUnits="userSpaceOnUse"
       x1="263.35999"
       y1="14.74"
       x2="333.47"
       y2="84.849998"
       gradientTransform="translate(-248.595,-0.04)" />
  </defs>
  <path
     class="gear"
     d="m 91.555,39.84 a 43.42,43.42 0 0 0 -5.15,-11.88 c 1.72,-2.41 3.36,-4.89 4.89,-7.49 L 79.485,8.71 c -2.68,1.58 -5.22,3.28 -7.71,5.05 A 42.48,42.48 0 0 0 60.255,9.01 c -0.51,-3 -1.11,-6 -1.9,-9 h -16.67 c -0.78,3 -1.37,5.92 -1.87,8.88 a 42.9,42.9 0 0 0 -11.85,4.7 c -2.39,-1.69 -4.83,-3.33 -7.41,-4.83 L 8.775,20.49 c 1.42,2.43 2.94,4.74 4.53,7 a 43.1,43.1 0 0 0 -5.51,12.47 c -2.6,0.46 -5.18,1 -7.78,1.68 v 16.65 c 2.42,0.64 4.82,1.14 7.24,1.58 a 42.94,42.94 0 0 0 5.34,13.58 82.692,82.692 0 0 0 -3.82,6 l 11.78,11.79 c 2,-1.16 3.9,-2.4 5.76,-3.68 a 42.75,42.75 0 0 0 13.92,5.8 c 0.4,2.22 0.88,4.42 1.45,6.63 h 16.72 c 0.59,-2.27 1.07,-4.53 1.49,-6.79 a 43.07,43.07 0 0 0 13.51,-5.89 c 2,1.36 4,2.67 6.07,3.9 l 11.78,-11.79 a 96.887,96.887 0 0 0 -4.19,-6.48 43.12,43.12 0 0 0 5,-13 c 2.64,-0.47 5.28,-1 7.92,-1.7 V 41.63 c -2.79,-0.74 -5.58,-1.31 -8.43,-1.79 z m -29.22,40.05 a 31.54,31.54 0 0 1 -24.77,0.23 0.13,0.13 0 0 0 0,-0.06 31.67,31.67 0 0 1 -17.19,-17.64 L 20.215,62 a 31.47,31.47 0 0 1 0.62,-23.51 c 0.18,-0.42 0.37,-0.84 0.58,-1.26 a 31.74,31.74 0 0 1 15.89,-15.16 q 1,-0.43 2.1,-0.81 a 31.5,31.5 0 0 1 10.28,-1.72 31.12,31.12 0 0 1 10.79,1.91 c 0.79,0.29 1.56,0.6 2.32,1 a 31.64,31.64 0 0 1 15.18,14.81 q 0.45,0.91 0.84,1.86 a 31.4,31.4 0 0 1 0.59,22.34 c -0.12,0.35 -0.24,0.7 -0.38,1 a 31.69,31.69 0 0 1 -16.48,17.29 z"
     id="path14"
     style="fill:url(#linearGradient26)" />
  <path
     class="dots"
     d="M 72.39,60.86 A 6.33,6.33 0 0 0 61.76,57.6 l -5,-3.72 a 8.63,8.63 0 0 0 -2.28,-11.3 l 4,-6.93 a 4.34,4.34 0 1 0 -2.8,-2.7 4.27,4.27 0 0 0 1.08,1.66 l -4,6.93 a 8.79,8.79 0 0 0 -3.94,-0.72 8.65,8.65 0 0 0 -7.2,4.66 l -8.58,-3.37 v -0.09 a 4,4 0 1 0 -0.75,1.95 l 8.58,3.37 a 8.67,8.67 0 0 0 2.92,8.84 l -4,6.24 a 5.23,5.23 0 0 0 -2.27,-0.38 5.33,5.33 0 1 0 4,1.45 l 4,-6.22 a 8.67,8.67 0 0 0 10.07,-1.82 l 5,3.73 a 6.33,6.33 0 1 0 11.8,1.68 z"
     id="path16"
     style="fill:url(#b)" />
</svg>
