<?xml version="1.0" encoding="UTF-8" standalone="no"?>
<svg
   xmlns:dc="http://purl.org/dc/elements/1.1/"
   xmlns:cc="http://creativecommons.org/ns#"
   xmlns:rdf="http://www.w3.org/1999/02/22-rdf-syntax-ns#"
   xmlns:svg="http://www.w3.org/2000/svg"
   xmlns="http://www.w3.org/2000/svg"
   xmlns:sodipodi="http://sodipodi.sourceforge.net/DTD/sodipodi-0.dtd"
   xmlns:inkscape="http://www.inkscape.org/namespaces/inkscape"
   class="hero-logo mt6 mb2 svelte-194ivpm"
   viewBox="0 0 22 25"
   version="1.1"
   id="svg10"
   sodipodi:docname="logo-skypack.svg"
   width="22"
   height="25"
   inkscape:version="1.0.2 (1.0.2+r75+1)">
  <metadata
     id="metadata16">
    <rdf:RDF>
      <cc:Work
         rdf:about="">
        <dc:format>image/svg+xml</dc:format>
        <dc:type
           rdf:resource="http://purl.org/dc/dcmitype/StillImage" />
        <dc:title>Skypack
				</dc:title>
      </cc:Work>
    </rdf:RDF>
  </metadata>
  <defs
     id="defs14" />
  <sodipodi:namedview
     pagecolor="#ffffff"
     bordercolor="#666666"
     borderopacity="1"
     objecttolerance="10"
     gridtolerance="10"
     guidetolerance="10"
     inkscape:pageopacity="0"
     inkscape:pageshadow="2"
     inkscape:window-width="2560"
     inkscape:window-height="1406"
     id="namedview12"
     showgrid="false"
     fit-margin-top="0"
     fit-margin-left="0"
     fit-margin-right="0"
     fit-margin-bottom="0"
     inkscape:zoom="12.762894"
     inkscape:cx="57.94946"
     inkscape:cy="9.8233414"
     inkscape:window-x="0"
     inkscape:window-y="0"
     inkscape:window-maximized="1"
     inkscape:current-layer="svg10" />
  <title
     id="title2">Skypack
				</title>
  <path
     id="path855"
     d="m 16.33,12.000051 -4.09,-2.0399999 4.09,-2.04 c 0.19,-0.1 0.31,-0.29 0.31,-0.5 0,-0.21 -0.12,-0.41 -0.31,-0.5 l -5.09,-2.54 a 0.55,0.55 0 0 0 -0.5,0 l -5.08,2.54 c -0.19,0.09 -0.31,0.28 -0.31,0.5 v 5.0799999 c 0,0.19 0.1,0.37 0.26,0.48 0.02,0.01 0.03,0.02 0.05,0.02 l 4.09,2.04 -4.09,2.04 c -0.19,0.1 -0.31,0.29 -0.31,0.5 0,0.21 0.12,0.41 0.31,0.5 l 5.09,2.54 c 0.08,0.04 0.17,0.06 0.25,0.06 0.08,0 0.17,-0.02 0.25,-0.06 l 5.09,-2.54 c 0.19,-0.1 0.31,-0.29 0.31,-0.5 v -5.08 a 0.596,0.596 0 0 0 -0.32,-0.5 z M 11,5.4900511 l 3.84,1.92 -3.84,1.92 -3.84,-1.91 z m -4.53,2.82 3.28,1.64 -3.28,1.6499999 z m 0.69,4.1899999 3.84,-1.92 3.83,1.92 -3.84,1.92 z m 3.28,3.44 v 3.28 l -3.28,-1.64 z m 5.09,1.31 -3.97,1.99 v -3.84 l 3.97,-1.99 z" />
  <path
     fill="currentColor"
     d="m 11,24.500051 c -0.09,0 -0.17,-0.02 -0.25,-0.06 l -10.17,-5.08 a 0.567,0.567 0 0 1 -0.31,-0.5 V 6.1500511 c 0,-0.21 0.12,-0.41 0.31,-0.5 L 10.75,0.56005105 a 0.55,0.55 0 0 1 0.5,0 L 21.42,5.6500511 c 0.19,0.1 0.31,0.29 0.31,0.5 V 18.860051 c 0,0.21 -0.12,0.41 -0.31,0.5 l -10.17,5.09 c -0.09,0.03 -0.17,0.05 -0.25,0.05 z m -9.62,-5.98 9.61,4.81 9.61,-4.81 V 6.5000511 l -9.61,-4.81 -9.61,4.81 z"
     id="path8" />
</svg>
