<?xml version="1.0" encoding="UTF-8" standalone="no"?>
<svg
   xmlns:dc="http://purl.org/dc/elements/1.1/"
   xmlns:cc="http://creativecommons.org/ns#"
   xmlns:rdf="http://www.w3.org/1999/02/22-rdf-syntax-ns#"
   xmlns:svg="http://www.w3.org/2000/svg"
   xmlns="http://www.w3.org/2000/svg"
   xmlns:sodipodi="http://sodipodi.sourceforge.net/DTD/sodipodi-0.dtd"
   xmlns:inkscape="http://www.inkscape.org/namespaces/inkscape"
   viewBox="0 0 160 200"
   version="1.1"
   id="svg26"
   sodipodi:docname="logo-lit.svg"
   width="160"
   height="200"
   inkscape:version="1.0.2 (1.0.2+r75+1)">
  <metadata
     id="metadata32">
    <rdf:RDF>
      <cc:Work
         rdf:about="">
        <dc:format>image/svg+xml</dc:format>
        <dc:type
           rdf:resource="http://purl.org/dc/dcmitype/StillImage" />
        <dc:title></dc:title>
      </cc:Work>
    </rdf:RDF>
  </metadata>
  <defs
     id="defs30" />
  <sodipodi:namedview
     pagecolor="#ffffff"
     bordercolor="#666666"
     borderopacity="1"
     objecttolerance="10"
     gridtolerance="10"
     guidetolerance="10"
     inkscape:pageopacity="0"
     inkscape:pageshadow="2"
     inkscape:window-width="2688"
     inkscape:window-height="1478"
     id="namedview28"
     showgrid="false"
     fit-margin-top="0"
     fit-margin-left="0"
     fit-margin-right="0"
     fit-margin-bottom="0"
     inkscape:zoom="2.1962491"
     inkscape:cx="177.33622"
     inkscape:cy="140.27972"
     inkscape:window-x="0"
     inkscape:window-y="0"
     inkscape:window-maximized="1"
     inkscape:current-layer="svg26" />
  <view
     id="flame"
     viewBox="0 0 160 200" />
  <view
     id="name"
     viewBox="240 78 185 122" />
  <path
     fill="#324fff"
     d="m 0,80 v 80 a 70.3,70.3 0 0 0 40,-40 z"
     id="path4" />
  <path
     fill="#283198"
     d="m 40,120 c 5.7,27.3 5.3,47 0,80 L 0,160 Z"
     id="path6" />
  <path
     fill="#00ffff"
     d="m 40,120 v 80 L 80,160 A 149.9,149.9 0 0 0 40,120 Z"
     id="path8" />
  <path
     fill="#324fff"
     d="M 80,0 V 80 C 80,80 48.3,55.7 40,40 Z"
     id="path10" />
  <path
     fill="#324fff"
     d="m 40,40 v 80 A 84.8,84.8 0 0 0 80,80 Z"
     id="path12" />
  <path
     fill="#00e8ff"
     d="m 80,80 a 182,182 0 0 1 0,80 L 40,120 Z"
     id="path14" />
  <path
     fill="#283198"
     d="m 80,80 v 80 c 17,-7.5 31.5,-19 40,-40 -5.9,-17 -18.1,-30.9 -40,-40 z"
     id="path16" />
  <path
     fill="#283198"
     d="m 120,40 v 80 L 80,80 Z"
     id="path18" />
  <path
     fill="#00e8ff"
     d="m 120,120 c 6.1,27 4.9,53.6 0,80 L 80,160 Z"
     id="path20" />
  <path
     fill="#324fff"
     d="m 120,120 v 80 l 40,-40 c -5.4,-15 -18.3,-27.9 -40,-40 z"
     id="path22" />
  <path
     fill="#324fff"
     d="m 160,80 v 80 l -40,-40 z"
     id="path24" />
</svg>
