<?xml version="1.0" encoding="UTF-8" standalone="no"?>
<svg
   xmlns:dc="http://purl.org/dc/elements/1.1/"
   xmlns:cc="http://creativecommons.org/ns#"
   xmlns:rdf="http://www.w3.org/1999/02/22-rdf-syntax-ns#"
   xmlns:svg="http://www.w3.org/2000/svg"
   xmlns="http://www.w3.org/2000/svg"
   xmlns:sodipodi="http://sodipodi.sourceforge.net/DTD/sodipodi-0.dtd"
   xmlns:inkscape="http://www.inkscape.org/namespaces/inkscape"
   width="100%"
   height="100%"
   viewBox="0 0 1921 1080"
   version="1.1"
   xml:space="preserve"
   style="fill-rule:evenodd;clip-rule:evenodd;stroke-linejoin:round;stroke-miterlimit:1.41421;"
   id="svg114"
   sodipodi:docname="rip-jquery.svg"
   inkscape:version="1.0.2 (1.0.2+r75+1)"><metadata
   id="metadata120"><rdf:RDF><cc:Work
       rdf:about=""><dc:format>image/svg+xml</dc:format><dc:type
         rdf:resource="http://purl.org/dc/dcmitype/StillImage" /></cc:Work></rdf:RDF></metadata><defs
   id="defs118">
        
    
            
            <clipPath
   id="_clip1">
                <rect
   x="1970"
   y="0"
   width="1920"
   height="1080"
   id="rect4" />
            </clipPath>
            
        
                
                
            
                    
                    
                
                    
                    
                    
                    
                    
                    
                    
                    
                    
                    
                    
                    
                
                        
                        
                    
                        
                        
                        
                        
                        
                        
                        
                        
                        
                        
                        
                        
                        
                        
                        
                        
                    
                        
                    
                        
                    
                        
                    
                        
                    
                        
                    
                        
                    
                        
                    
                        
                    
                        
                    
                        
                    
                        
                    
                        
                    
                            
                            
                        
                            
                        </defs><sodipodi:namedview
   pagecolor="#ffffff"
   bordercolor="#666666"
   borderopacity="1"
   objecttolerance="10"
   gridtolerance="10"
   guidetolerance="10"
   inkscape:pageopacity="0"
   inkscape:pageshadow="2"
   inkscape:window-width="2560"
   inkscape:window-height="1406"
   id="namedview116"
   showgrid="false"
   showguides="false"
   inkscape:zoom="0.35499751"
   inkscape:cx="1745.2089"
   inkscape:cy="1131.6302"
   inkscape:window-x="0"
   inkscape:window-y="0"
   inkscape:window-maximized="1"
   inkscape:current-layer="svg114"
   inkscape:document-rotation="0" />
    <path
   style="fill:#808080;fill-opacity:1;stroke:#000000;stroke-width:14.7164px;stroke-linecap:round;stroke-miterlimit:1.5;stroke-dasharray:0, 0.736385, 0, 0"
   d="m 814.8957,955.89829 c 30.4768,-1.35205 -139.2457,23.05868 -140.44515,20.57195 -11.63682,-24.12586 -15.26439,-181.77638 -15.26439,-209.17358 0,-147.86187 -9.95852,-292.57793 94.27858,-396.81503 12.81313,-12.81176 42.34985,-15.54664 59.10066,-23.92137 15.86096,-7.92979 28.87953,-17.25425 45.02894,-25.32828 15.51943,-7.76107 91.49064,-5.60174 97.09238,0"
   id="path853"
   sodipodi:nodetypes="csccccc" /><path
   style="fill:#b3b3b3;stroke:#000000;stroke-width:14.7164px;stroke-linecap:round;stroke-miterlimit:1.5;stroke-dasharray:0, 0.73638499999999985, 0, 0;fill-opacity:1"
   d="m 757.6868,944.59591 c 0,-11.82803 -6.78686,-27.14608 -9.84966,-39.39998 -7.94341,-31.7709 -10.22383,-224.68347 -2.81516,-261.7282 13.79687,-68.9816 -1.03,-142.74994 36.58619,-205.44269 24.78538,-41.30895 66.51341,-95.78072 116.79306,-108.35029 112.21317,-28.05363 216.43937,-8.13934 282.83847,91.46342 2.6532,3.98395 11.443,10.40616 12.6676,14.07172 23.0083,69.03467 22.5729,147.95438 45.0234,215.2937 7.742,23.21656 -3.1431,53.54653 2.8165,77.39307 6.1094,24.44251 0.626,213.26091 -11.266,225.14337"
   id="path880" /><text
   x="824.92291"
   y="686.89697"
   style="font-size:145.332px;font-family:Boogaloo-Regular, Boogaloo, cursive;fill:#ffffff;stroke-width:1.74076"
   id="text13"><tspan
     style="fill:#000000;stroke-width:1.74076"
     id="tspan375">jQuery</tspan></text>
<path
   d="m 316.25235,1096.7617 c -7.83941,0.1794 25.54601,-25.1522 29.17589,-28.0105 22.68626,-17.8306 49.47854,-21.8678 75.03599,-32.7725 16.90684,-7.2226 36.82004,-8.8558 54.35273,-13.6662 19.5861,-5.3739 38.17215,-15.0738 57.90662,-21.2079 39.67556,-12.32105 82.55573,-17.11103 122.27933,-31.37456 54.44521,-19.54407 113.18894,-14.26364 169.63651,-25.00451 149.8494,-28.5147 310.49068,-14.19895 453.89088,18.1844 44.6198,10.06676 100.1052,7.77529 149.5194,18.93367 44.8737,10.13304 184.5217,55.9864 201.126,102.2421 2.1685,6.0411 8.7998,4.4597 8.9207,9.7428"
   style="fill:#009452;fill-opacity:1;stroke:#000000;stroke-width:14.72px;stroke-linecap:round;stroke-miterlimit:1.5;stroke-dasharray:0, 0.74, 0, 0"
   id="path49" /></svg>
