<?xml version="1.0" encoding="UTF-8" standalone="no"?>
<svg
   xmlns:dc="http://purl.org/dc/elements/1.1/"
   xmlns:cc="http://creativecommons.org/ns#"
   xmlns:rdf="http://www.w3.org/1999/02/22-rdf-syntax-ns#"
   xmlns:svg="http://www.w3.org/2000/svg"
   xmlns="http://www.w3.org/2000/svg"
   xmlns:sodipodi="http://sodipodi.sourceforge.net/DTD/sodipodi-0.dtd"
   xmlns:inkscape="http://www.inkscape.org/namespaces/inkscape"
   version="1.1"
   id="Ebene_1"
   x="0px"
   y="0px"
   width="576px"
   height="576px"
   viewBox="0 0 576 576"
   style="enable-background:new 0 0 576 576;"
   xml:space="preserve"
   inkscape:version="1.0.2 (1.0.2+r75+1)"
   sodipodi:docname="sign-limit-request.svg"><metadata
     id="metadata25"><rdf:RDF><cc:Work
         rdf:about=""><dc:format>image/svg+xml</dc:format><dc:type
           rdf:resource="http://purl.org/dc/dcmitype/StillImage" /></cc:Work></rdf:RDF></metadata><defs
     id="defs23" /><sodipodi:namedview
     pagecolor="#ffffff"
     bordercolor="#666666"
     borderopacity="1"
     objecttolerance="10"
     gridtolerance="10"
     guidetolerance="10"
     inkscape:pageopacity="0"
     inkscape:pageshadow="2"
     inkscape:window-width="1338"
     inkscape:window-height="1475"
     id="namedview21"
     showgrid="false"
     inkscape:zoom="0.97314399"
     inkscape:cx="282.07513"
     inkscape:cy="288.53104"
     inkscape:window-x="1344"
     inkscape:window-y="0"
     inkscape:window-maximized="0"
     inkscape:current-layer="Ebene_1"
     inkscape:document-rotation="0" /><circle
     style="fill:#FFFFFF;stroke:#000000;stroke-width:2;stroke-linecap:round;stroke-linejoin:round;"
     cx="287.969"
     cy="287.969"
     r="286.969"
     id="circle3" /><path
     d="M293.813,95.969h29.835c1.313,0.082,2.624,0.167,3.935,0.26l-33.77,30.604l-33.77-30.604  c1.311-0.093,2.623-0.178,3.934-0.26H293.813z M293.813,453.105l34.057,30.862h-34.057h-34.056L293.813,453.105z"
     id="path5" /><path
     style="fill:#FF0000;stroke:#FF0000;stroke-width:0.1764;stroke-linecap:round;stroke-linejoin:round;"
     d="M287.969,13.986  c-151.316,0-273.982,122.667-273.982,273.982c0,151.316,122.666,273.982,273.982,273.982c151.315,0,273.981-122.666,273.981-273.982  C561.95,136.653,439.284,13.986,287.969,13.986z M287.969,480.407c-106.28,0-192.438-86.158-192.438-192.438  c0-106.28,86.157-192.438,192.438-192.438s192.438,86.157,192.438,192.438C480.406,394.25,394.248,480.407,287.969,480.407z"
     id="path7" /><text
     xml:space="preserve"
     style="font-style:normal;font-variant:normal;font-weight:normal;font-stretch:normal;font-size:56px;line-height:1.25;font-family:'Arial Black';-inkscape-font-specification:'Arial Black, Normal';font-variant-ligatures:normal;font-variant-caps:normal;font-variant-numeric:normal;font-variant-east-asian:normal;letter-spacing:0px;word-spacing:0px;fill:#000000;fill-opacity:1;stroke:none;stroke-width:0.999999"
     x="117.37134"
     y="310.88306"
     id="text870"><tspan
       sodipodi:role="line"
       id="tspan868"
       x="117.37134"
       y="310.88306"
       style="font-style:normal;font-variant:normal;font-weight:normal;font-stretch:normal;font-size:56px;font-family:'Arial Black';-inkscape-font-specification:'Arial Black, Normal';font-variant-ligatures:normal;font-variant-caps:normal;font-variant-numeric:normal;font-variant-east-asian:normal;stroke-width:0.999999">REQUÊTES</tspan></text></svg>
