<?xml version="1.0" encoding="UTF-8" standalone="no"?>
<svg
   xmlns:dc="http://purl.org/dc/elements/1.1/"
   xmlns:cc="http://creativecommons.org/ns#"
   xmlns:rdf="http://www.w3.org/1999/02/22-rdf-syntax-ns#"
   xmlns:svg="http://www.w3.org/2000/svg"
   xmlns="http://www.w3.org/2000/svg"
   xmlns:sodipodi="http://sodipodi.sourceforge.net/DTD/sodipodi-0.dtd"
   xmlns:inkscape="http://www.inkscape.org/namespaces/inkscape"
   version="1.1"
   id="Layer_1"
   sodipodi:docname="sign-obligation.svg"
   inkscape:version="1.0.2 (1.0.2+r75+1)"
   x="0px"
   y="0px"
   width="577.137px"
   height="577.137px"
   viewBox="0 0 577.137 577.137"
   style="enable-background:new 0 0 577.137 577.137;"
   xml:space="preserve"><metadata
   id="metadata40"><rdf:RDF><cc:Work
       rdf:about=""><dc:format>image/svg+xml</dc:format><dc:type
         rdf:resource="http://purl.org/dc/dcmitype/StillImage" /></cc:Work></rdf:RDF></metadata><defs
   id="defs38" />
<sodipodi:namedview
   id="namedview37"
   inkscape:window-height="1478"
   inkscape:window-width="2688"
   inkscape:pageshadow="2"
   inkscape:pageopacity="0"
   inkscape:window-x="0"
   fit-margin-bottom="0.1"
   fit-margin-right="0.1"
   inkscape:current-layer="text44"
   inkscape:window-y="0"
   inkscape:window-maximized="1"
   inkscape:zoom="2.8292559"
   inkscape:cx="270.41746"
   bordercolor="#666666"
   fit-margin-left="0.1"
   showgrid="false"
   gridtolerance="10"
   pagecolor="#ffffff"
   guidetolerance="10"
   objecttolerance="10"
   fit-margin-top="0.1"
   inkscape:cy="327.47824"
   borderopacity="1"
   inkscape:document-rotation="0">
	</sodipodi:namedview>


<g
   inkscape:groupmode="layer"
   id="layer1"
   inkscape:label="Layer 1"
   style="display:inline"><circle
     id="circle3"
     style="fill:#ffffff;stroke:#000000;stroke-width:3;stroke-linecap:round;stroke-linejoin:round"
     cx="287.62"
     cy="287.62"
     r="286.96899">
</circle><circle
     id="circle5"
     style="fill:#003399"
     cx="287.62"
     cy="287.62"
     r="259.95999">
</circle><g
     aria-label="CACHE"
     id="text44"
     style="enable-background:new 0 0 577.13699999999994361 577.13699999999994361;display:inline;font-style:normal;font-variant:normal;font-weight:normal;font-stretch:normal;font-size:126.383px;line-height:1.25;font-family:'Arial Black';-inkscape-font-specification:'Arial Black, Normal';font-variant-ligatures:normal;font-variant-caps:normal;font-variant-numeric:normal;font-variant-east-asian:normal;letter-spacing:0px;word-spacing:0px;fill:#ffffff;fill-opacity:1;stroke:none;stroke-width:1"><path
       d="m 161.76187,241.6456 q 17.95774,3.08552 23.51168,21.41352 l 0.5554,3.02382 -15.61275,3.27065 q -1.91302,-7.89894 -6.5413,-10.49078 -4.62829,-2.59183 -10.86104,0.49369 -4.1346,3.51749 -6.91157,9.62683 -2.71526,6.10933 -3.57921,16.5384 -0.37026,11.10788 2.90039,19.31537 3.27066,8.14578 7.89894,10.79933 4.68999,2.65355 9.56512,0.74052 4.87512,-1.2342 7.77552,-10.0588 l 15.61274,4.81342 q -3.14723,12.4038 -12.15696,17.95774 -6.60302,4.19631 -15.55103,4.7517 -16.84696,-0.37026 -25.17787,-13.76143 -8.76288,-14.56366 -9.00972,-31.53404 0.12342,-21.22839 9.13314,-34.74298 5.67737,-7.46697 12.71236,-10.30565 5.3071,-2.09815 11.53985,-2.09815 2.03645,0 4.19631,0.24684 z"
       style="font-style:normal;font-variant:normal;font-weight:normal;font-stretch:normal;font-family:'Caracteres L1';-inkscape-font-specification:'Caracteres L1';stroke-width:1"
       id="path1992" /><path
       d="m 235.1356,242.63297 23.32655,90.40581 h -17.7109 l -3.88776,-15.36591 h -24.99273 l -3.94947,15.36591 h -17.89603 l 23.07971,-90.40581 z m -19.87077,57.82269 h 17.83432 l -8.63946,-35.29838 z"
       style="font-style:normal;font-variant:normal;font-weight:normal;font-stretch:normal;font-family:'Caracteres L1';-inkscape-font-specification:'Caracteres L1';stroke-width:1"
       id="path1994" /><path
       d="m 296.72263,241.6456 q 17.95774,3.08552 23.51168,21.41352 l 0.55539,3.02382 -15.61274,3.27065 q -1.91303,-7.89894 -6.54131,-10.49078 -4.62828,-2.59183 -10.86104,0.49369 -4.1346,3.51749 -6.91157,9.62683 -2.71526,6.10933 -3.57921,16.5384 -0.37026,11.10788 2.9004,19.31537 3.27065,8.14578 7.89893,10.79933 4.69,2.65355 9.56512,0.74052 4.87513,-1.2342 7.77552,-10.0588 l 15.61274,4.81342 q -3.14723,12.4038 -12.15695,17.95774 -6.60302,4.19631 -15.55104,4.7517 -16.84695,-0.37026 -25.17786,-13.76143 -8.76289,-14.56366 -9.00973,-31.53404 0.12342,-21.22839 9.13315,-34.74298 5.67736,-7.46697 12.71235,-10.30565 5.3071,-2.09815 11.53986,-2.09815 2.03644,0 4.19631,0.24684 z"
       style="font-style:normal;font-variant:normal;font-weight:normal;font-stretch:normal;font-family:'Caracteres L1';-inkscape-font-specification:'Caracteres L1';stroke-width:1"
       id="path1996" /><path
       d="m 344.98019,242.75639 v 36.22403 H 369.8495 V 242.8181 h 17.34064 v 90.40581 H 369.8495 v -37.39654 h -24.86931 v 37.39654 h -17.34064 v -90.46752 z"
       style="font-style:normal;font-variant:normal;font-weight:normal;font-stretch:normal;font-family:'Caracteres L1';-inkscape-font-specification:'Caracteres L1';stroke-width:1"
       id="path1998" /><path
       d="m 449.45597,242.8181 v 16.5384 h -37.39653 v 19.74734 h 27.39944 v 16.72353 h -27.39944 v 20.67301 h 39.001 v 16.72353 h -56.40335 l 0.0617,-90.40581 z"
       style="font-style:normal;font-variant:normal;font-weight:normal;font-stretch:normal;font-family:'Caracteres L1';-inkscape-font-specification:'Caracteres L1';stroke-width:1"
       id="path2000" /></g></g><g
   inkscape:groupmode="layer"
   id="layer2"
   inkscape:label="Layer 2"
   style="display:none"><g
     id="g23"
     style="display:inline">
	
	
	
	
	
	
	
	
	
</g></g>

</svg>
