<?xml version="1.0" encoding="UTF-8" standalone="no"?>
<svg
   xmlns:dc="http://purl.org/dc/elements/1.1/"
   xmlns:cc="http://creativecommons.org/ns#"
   xmlns:rdf="http://www.w3.org/1999/02/22-rdf-syntax-ns#"
   xmlns:svg="http://www.w3.org/2000/svg"
   xmlns="http://www.w3.org/2000/svg"
   xmlns:sodipodi="http://sodipodi.sourceforge.net/DTD/sodipodi-0.dtd"
   xmlns:inkscape="http://www.inkscape.org/namespaces/inkscape"
   version="1.1"
   id="Ebene_1"
   x="0px"
   y="0px"
   width="576px"
   height="576px"
   viewBox="0 0 576 576"
   style="enable-background:new 0 0 576 576;"
   xml:space="preserve"
   inkscape:version="1.0.2 (1.0.2+r75+1)"
   sodipodi:docname="sign-limit-request.svg"><metadata
     id="metadata25"><rdf:RDF><cc:Work
         rdf:about=""><dc:format>image/svg+xml</dc:format><dc:type
           rdf:resource="http://purl.org/dc/dcmitype/StillImage" /></cc:Work></rdf:RDF></metadata><defs
     id="defs23" /><sodipodi:namedview
     pagecolor="#ffffff"
     bordercolor="#666666"
     borderopacity="1"
     objecttolerance="10"
     gridtolerance="10"
     guidetolerance="10"
     inkscape:pageopacity="0"
     inkscape:pageshadow="2"
     inkscape:window-width="2688"
     inkscape:window-height="1478"
     id="namedview21"
     showgrid="false"
     inkscape:zoom="1.8236794"
     inkscape:cx="283.26911"
     inkscape:cy="313.91712"
     inkscape:window-x="0"
     inkscape:window-y="0"
     inkscape:window-maximized="1"
     inkscape:current-layer="layer5"
     inkscape:document-rotation="0" /><g
     inkscape:groupmode="layer"
     id="layer5"
     inkscape:label="Layer 1"><circle
       style="fill:#ffffff;stroke:#000000;stroke-width:2;stroke-linecap:round;stroke-linejoin:round"
       cx="287.96899"
       cy="287.96899"
       r="286.96899"
       id="circle3" /><path
       d="m 293.813,95.969 h 29.835 c 1.313,0.082 2.624,0.167 3.935,0.26 l -33.77,30.604 -33.77,-30.604 c 1.311,-0.093 2.623,-0.178 3.934,-0.26 z m 0,357.136 34.057,30.862 h -34.057 -34.056 z"
       id="path5" /><path
       style="fill:#ff0000;stroke:#ff0000;stroke-width:0.1764;stroke-linecap:round;stroke-linejoin:round"
       d="m 287.969,13.986 c -151.316,0 -273.982,122.667 -273.982,273.982 0,151.316 122.666,273.982 273.982,273.982 151.315,0 273.981,-122.666 273.981,-273.982 0,-151.315 -122.666,-273.982 -273.981,-273.982 z m 0,466.421 c -106.28,0 -192.438,-86.158 -192.438,-192.438 0,-106.28 86.157,-192.438 192.438,-192.438 106.281,0 192.438,86.157 192.438,192.438 -10e-4,106.281 -86.159,192.438 -192.438,192.438 z"
       id="path7" /><g
       aria-label="REQUÊTES"
       id="text870-3"
       style="font-style:normal;font-variant:normal;font-weight:normal;font-stretch:normal;font-size:76.5755px;line-height:1.25;font-family:'Arial Black';-inkscape-font-specification:'Arial Black, Normal';font-variant-ligatures:normal;font-variant-caps:normal;font-variant-numeric:normal;font-variant-east-asian:normal;letter-spacing:0px;word-spacing:0px;fill:#000000;fill-opacity:1;stroke:none;stroke-width:0.999998"><path
         d="m 147.62419,265.21695 q 8.63718,0 13.49793,6.2068 4.2625,5.459 4.2625,12.30144 0,1.23388 -0.14956,2.91645 -0.89737,8.33805 -8.33805,13.79705 l 9.12325,19.74212 H 154.2049 l -7.81459,-16.3396 h -6.76766 v 16.45177 h -10.35713 l 0.0374,-55.07603 z m -1.49561,28.08018 3.06601,-0.37391 q 2.61733,-0.71041 4.37467,-2.95384 1.49562,-2.20603 1.79474,-5.27204 0.14956,-3.81382 -2.24342,-6.65549 -2.01908,-2.3182 -5.87029,-2.61733 h -7.51547 v 17.87261 z"
         style="font-style:normal;font-variant:normal;font-weight:normal;font-stretch:normal;font-size:76.5755px;font-family:'Caracteres L1';-inkscape-font-specification:'Caracteres L1, Normal';font-variant-ligatures:normal;font-variant-caps:normal;font-variant-numeric:normal;font-variant-east-asian:normal;stroke-width:0.999998"
         id="path2214" /><path
         d="m 202.55066,265.44129 v 10.02062 h -22.65857 v 11.96493 h 16.60133 v 10.13279 h -16.60133 v 12.52578 h 23.63072 v 10.13279 h -34.1748 l 0.0374,-54.77691 z"
         style="font-style:normal;font-variant:normal;font-weight:normal;font-stretch:normal;font-size:76.5755px;font-family:'Caracteres L1';-inkscape-font-specification:'Caracteres L1, Normal';font-variant-ligatures:normal;font-variant-caps:normal;font-variant-numeric:normal;font-variant-east-asian:normal;stroke-width:0.999998"
         id="path2216" /><path
         d="m 230.44389,264.73088 q 9.04848,1.38344 13.38576,10.69364 3.70165,6.87983 3.70165,16.90046 v 0.67302 q 0,12.52578 -6.09463,21.31252 -4.33729,5.90768 -12.26405,6.6181 -0.82259,0.0748 -1.60779,0.0748 -8.22588,0 -13.79705,-6.95461 -5.75812,-9.27282 -5.8329,-19.03171 -0.0374,-0.82258 -0.0374,-1.64517 0,-13.19881 5.87029,-21.83599 3.92599,-4.71118 8.1885,-6.01985 2.95384,-0.93476 5.90768,-0.93476 1.30866,0 2.57993,0.14957 z m -2.87906,46.70058 q 4.33729,-0.22434 7.32852,-5.94507 2.16864,-3.81382 2.7295,-11.21711 0.11217,-9.42238 -3.32775,-15.44223 -2.80428,-4.18772 -6.2068,-4.6738 -4.48685,0.22434 -7.47808,5.87029 -2.13125,3.96338 -2.76689,11.36668 -0.0748,9.42237 3.40253,15.40483 2.76689,4.18773 6.31897,4.63641 z m 9.7215,1.45823 6.09464,11.32928 h -12.11449 l -7.21634,-11.32928 z"
         style="font-style:normal;font-variant:normal;font-weight:normal;font-stretch:normal;font-size:76.5755px;font-family:'Caracteres L1';-inkscape-font-specification:'Caracteres L1, Normal';font-variant-ligatures:normal;font-variant-caps:normal;font-variant-numeric:normal;font-variant-east-asian:normal;stroke-width:0.999998"
         id="path2218" /><path
         d="m 263.68394,265.47868 v 37.09126 q 0.71042,7.10417 8.00154,7.92676 7.17896,-0.7852 8.07633,-7.81459 v -37.20343 h 10.58147 V 305.449 q -1.38344,7.32851 -6.91722,11.40407 -4.93553,3.4773 -10.0954,3.66425 -0.82259,0.0748 -1.60779,0.0748 -7.66502,0 -12.67533,-4.44945 -5.72073,-5.53378 -6.05725,-11.2919 v -39.37207 z"
         style="font-style:normal;font-variant:normal;font-weight:normal;font-stretch:normal;font-size:76.5755px;font-family:'Caracteres L1';-inkscape-font-specification:'Caracteres L1, Normal';font-variant-ligatures:normal;font-variant-caps:normal;font-variant-numeric:normal;font-variant-east-asian:normal;stroke-width:0.999998"
         id="path2220" /><path
         d="m 328.40668,265.44129 v 10.02062 h -22.65857 v 11.96493 h 16.60133 v 10.13279 h -16.60133 v 12.52578 h 23.63072 v 10.13279 h -34.17481 l 0.0374,-54.77691 z m -12.67534,-13.72227 -5.64594,11.36668 h -11.89015 l 4.89814,-11.36668 z m 5.459,0 4.89814,11.36668 h -11.89014 l -5.57117,-11.36668 z"
         style="font-style:normal;font-variant:normal;font-weight:normal;font-stretch:normal;font-size:76.5755px;font-family:'Caracteres L1';-inkscape-font-specification:'Caracteres L1, Normal';font-variant-ligatures:normal;font-variant-caps:normal;font-variant-numeric:normal;font-variant-east-asian:normal;stroke-width:0.999998"
         id="path2222" /><path
         d="m 366.80661,265.36651 v 10.54409 h -10.95538 v 44.3076 h -10.17019 v -44.41977 h -11.70319 v -10.43192 z"
         style="font-style:normal;font-variant:normal;font-weight:normal;font-stretch:normal;font-size:76.5755px;font-family:'Caracteres L1';-inkscape-font-specification:'Caracteres L1, Normal';font-variant-ligatures:normal;font-variant-caps:normal;font-variant-numeric:normal;font-variant-east-asian:normal;stroke-width:0.999998"
         id="path2224" /><path
         d="m 404.15961,265.44129 v 10.02062 h -22.65857 v 11.96493 h 16.60133 v 10.13279 h -16.60133 v 12.52578 h 23.63072 v 10.13279 h -34.17481 l 0.0374,-54.77691 z"
         style="font-style:normal;font-variant:normal;font-weight:normal;font-stretch:normal;font-size:76.5755px;font-family:'Caracteres L1';-inkscape-font-specification:'Caracteres L1, Normal';font-variant-ligatures:normal;font-variant-caps:normal;font-variant-numeric:normal;font-variant-east-asian:normal;stroke-width:0.999998"
         id="path2226" /><path
         d="m 409.09515,309.03848 v -0.0748 q 0,-0.4113 0.85998,-0.56086 6.61809,-2.13125 8.59978,-3.06601 1.00954,1.38344 2.65472,2.50515 2.65472,1.5704 5.68334,1.90691 3.21557,0.0748 4.00077,-0.14956 3.70165,-1.04693 4.56163,-2.13125 0.85997,-0.74781 1.49561,-3.62687 0.14956,-1.12171 -0.29912,-2.50515 -0.56086,-0.93476 -1.19649,-1.5704 l -1.27128,-0.97215 -1.42083,-0.63563 q -11.85275,-3.70165 -13.04924,-4.33729 -5.49639,-2.20603 -8.1885,-7.29112 -1.75735,-3.40253 -1.57039,-8.26328 0.71041,-6.05724 4.97292,-9.60932 4.78597,-3.47731 9.98323,-3.77643 h 0.97215 q 3.70165,0 6.13202,0.56085 4.93553,1.38345 7.70242,3.85121 2.76689,2.28081 4.56163,6.2068 l -0.11218,0.4113 -7.70241,3.70165 -0.37391,-0.18696 q -0.71042,-2.28081 -4.00077,-3.70164 -3.70165,-1.38345 -8.67457,-0.0748 -2.13125,0.71041 -2.99123,1.83213 -0.29912,0.29912 -0.7852,1.86951 -0.0748,1.83213 0.14957,2.13126 0.48607,1.27127 1.9443,2.28081 l 0.97215,0.41129 q 10.61886,3.1408 14.39529,4.56163 3.25297,1.49562 4.97292,3.29035 l 2.09386,2.84167 q 2.31821,3.85121 2.46777,8.41284 0.0374,0.29912 0.0374,0.71042 0,1.45822 -0.44868,3.92599 -0.93476,3.4773 -2.24343,5.12248 -2.24342,2.76689 -3.25296,3.32774 -5.49639,3.77643 -11.32929,4.07555 h -3.40252 q -3.81382,-0.3739 -6.43115,-1.49561 -4.18772,-1.9443 -6.76766,-4.33729 -2.13125,-1.9443 -3.70164,-5.57116 z"
         style="font-style:normal;font-variant:normal;font-weight:normal;font-stretch:normal;font-size:76.5755px;font-family:'Caracteres L1';-inkscape-font-specification:'Caracteres L1, Normal';font-variant-ligatures:normal;font-variant-caps:normal;font-variant-numeric:normal;font-variant-east-asian:normal;stroke-width:0.999998"
         id="path2228" /></g></g><g
     inkscape:groupmode="layer"
     id="layer6"
     inkscape:label="Layer 2"
     style="display:none"><text
       xml:space="preserve"
       style="font-style:normal;font-variant:normal;font-weight:normal;font-stretch:normal;font-size:76.5755px;line-height:1.25;font-family:'Arial Black';-inkscape-font-specification:'Arial Black, Normal';font-variant-ligatures:normal;font-variant-caps:normal;font-variant-numeric:normal;font-variant-east-asian:normal;letter-spacing:0px;word-spacing:0px;fill:#000000;fill-opacity:1;stroke:none;stroke-width:0.999998"
       x="126.9847"
       y="320.2182"
       id="text870"><tspan
         sodipodi:role="line"
         id="tspan868"
         x="126.9847"
         y="320.2182"
         style="font-style:normal;font-variant:normal;font-weight:normal;font-stretch:normal;font-size:76.5755px;font-family:'Caracteres L1';-inkscape-font-specification:'Caracteres L1, Normal';font-variant-ligatures:normal;font-variant-caps:normal;font-variant-numeric:normal;font-variant-east-asian:normal;stroke-width:0.999998">REQUÊTES</tspan></text></g></svg>
